<svg width="520" height="170" viewBox="0 0 520 170" fill="none" xmlns="http://www.w3.org/2000/svg">
<path d="M343.329 41.9048L318.203 44.0635L284.537 157.378L309.663 155.22L343.329 41.9048Z" fill="white"/>
<path d="M318.212 44.0587L311.479 66.7197L411.989 58.0848L418.722 35.4238L318.212 44.0587Z" fill="white"/>
<path d="M291.264 134.713L284.532 157.374L385.041 148.739L391.774 126.078L291.264 134.713Z" fill="white"/>
<path d="M405.232 80.7535L380.106 82.9121L359.906 150.901L385.033 148.742L405.232 80.7535Z" fill="white"/>
<path d="M355.007 85.0744L348.274 107.735L398.529 103.418L405.261 80.7569L355.007 85.0744Z" fill="white"/>
<path d="M468.98 31.104L443.854 33.2627L410.188 146.577L435.314 144.419L468.98 31.104Z" fill="white"/>
<path d="M443.832 33.2667L437.099 55.9277L512.48 49.4517L519.213 26.7907L443.832 33.2667Z" fill="white"/>
<path d="M416.907 123.92L410.175 146.581L485.556 140.105L492.288 117.444L416.907 123.92Z" fill="white"/>
<path d="M519.229 26.7886L494.103 28.9473L460.437 142.262L485.563 140.103L519.229 26.7886Z" fill="white"/>
<path d="M130.672 16.0181L105.546 18.1768L71.8801 131.492L97.0065 129.333L130.672 16.0181Z" fill="#FFE7D8"/>
<path d="M105.529 18.1798L98.7969 40.8408L199.306 32.2059L206.039 9.54494L105.529 18.1798Z" fill="#FFE7D8"/>
<path d="M78.613 108.831L71.8804 131.492L172.39 122.857L179.123 100.196L78.613 108.831Z" fill="#FFE7D8"/>
<path d="M192.581 54.8687L167.455 57.0273L147.255 125.016L172.381 122.858L192.581 54.8687Z" fill="#FFE7D8"/>
<path d="M142.319 59.1886L135.586 81.8496L185.841 77.5322L192.573 54.8712L142.319 59.1886Z" fill="#FFE7D8"/>
<path d="M80.416 20.3316L55.2896 22.4902L21.6237 135.805L46.7501 133.646L80.416 20.3316Z" fill="#FFE7D8"/>
<path fill-rule="evenodd" clip-rule="evenodd" d="M80.4063 20.3311C71.1013 51.624 35.4411 79.3953 0.749023 82.397L7.47229 59.7309C28.2875 57.9346 49.6944 41.2718 55.2613 22.4819L80.3794 20.3311H80.4063Z" fill="#FFE7D8"/>
<path d="M256.31 5.22709L231.184 7.38574L197.518 120.701L222.644 118.542L256.31 5.22709Z" fill="#FFE7D8"/>
<path d="M231.185 7.38686L224.453 30.0479L299.833 23.5718L306.566 0.910821L231.185 7.38686Z" fill="#FFE7D8"/>
<path d="M204.261 98.0333L197.528 120.694L272.909 114.218L279.642 91.5573L204.261 98.0333Z" fill="#FFE7D8"/>
<path d="M217.7 52.714L210.967 75.375L261.222 71.0576L267.955 48.3966L217.7 52.714Z" fill="#FFE7D8"/>
<path d="M76.9632 148.378C77.9852 148.283 78.8457 148.354 79.545 148.543C80.2442 148.732 80.8358 149.039 81.293 149.465C81.7502 149.867 82.046 150.363 82.2612 150.93C82.4494 151.497 82.5301 152.088 82.5032 152.727C82.4494 153.696 82.0998 154.641 81.4544 155.492C80.8089 156.366 79.787 157.146 78.3617 157.855C79.1953 158.21 79.7601 158.706 80.029 159.368C80.298 160.03 80.4055 160.739 80.3518 161.519C80.298 162.322 80.1097 163.126 79.7332 163.93C79.3567 164.733 78.8457 165.442 78.1465 166.104C77.4742 166.742 76.6674 167.286 75.7261 167.735C74.7849 168.16 73.7092 168.42 72.5259 168.538L62.4141 169.366L67.9003 149.134L76.9901 148.378H76.9632ZM70.2668 151.332L68.5995 157.501L74.6235 157.004C75.1883 156.957 75.753 156.815 76.2909 156.603C76.8288 156.39 77.3397 156.106 77.77 155.775C78.2003 155.445 78.5499 155.066 78.8457 154.617C79.1147 154.192 79.276 153.719 79.3029 153.246C79.3567 152.325 79.0609 151.663 78.4423 151.285C77.8238 150.907 77.017 150.765 76.0489 150.836L70.2937 151.308L70.2668 151.332ZM67.9003 159.959L66.0715 166.624L72.0149 166.128C72.6872 166.08 73.3327 165.939 73.9512 165.726C74.5697 165.513 75.1076 165.23 75.5917 164.875C76.0757 164.52 76.4523 164.095 76.7481 163.599C77.0439 163.102 77.2053 162.559 77.2322 161.968C77.2859 161.046 76.9901 160.384 76.3716 159.959C75.753 159.533 74.9462 159.368 73.9781 159.439L67.9271 159.935L67.9003 159.959Z" fill="#FFE7D8"/>
<path d="M94.9404 166.679L100.427 146.447L103.466 146.188L97.9793 166.419L94.9404 166.679Z" fill="#FFE7D8"/>
<path d="M129.529 144.035C130.444 143.964 131.251 144.035 131.896 144.248C132.541 144.461 133.079 144.792 133.51 145.241C133.94 145.666 134.236 146.186 134.424 146.777C134.612 147.368 134.666 147.982 134.639 148.621C134.612 149.235 134.478 149.873 134.236 150.511C133.994 151.15 133.671 151.764 133.214 152.355C132.757 152.946 132.165 153.513 131.466 154.057C130.767 154.6 129.933 155.049 128.965 155.451L130.874 163.723L127.539 164.007L125.98 156.184L119.982 156.68L117.777 164.811L114.738 165.071L120.224 144.839L129.529 144.059V144.035ZM122.618 147.013L120.682 154.175L126.41 153.702C127.055 153.655 127.701 153.489 128.292 153.253C128.884 153.017 129.422 152.686 129.879 152.284C130.336 151.882 130.713 151.41 131.009 150.89C131.304 150.37 131.466 149.779 131.493 149.141C131.546 148.242 131.304 147.557 130.74 147.084C130.202 146.612 129.395 146.423 128.319 146.517L122.591 146.99L122.618 147.013Z" fill="#FFE7D8"/>
<path d="M161.92 158.918C160.791 159.911 159.581 160.644 158.263 161.117C156.945 161.589 155.654 161.873 154.417 161.967C153.422 162.038 152.508 161.991 151.647 161.826C150.787 161.637 150.061 161.353 149.415 160.904C148.77 160.478 148.286 159.911 147.936 159.249C147.586 158.588 147.452 157.784 147.479 156.886C147.506 156.46 147.586 155.988 147.721 155.42L149.523 148.637C150.061 146.581 151.163 144.903 152.831 143.627C154.471 142.35 156.596 141.594 159.204 141.381C160.468 141.287 161.652 141.334 162.808 141.499C163.964 141.688 164.879 142.067 165.578 142.61L163.615 144.832C163.131 144.454 162.458 144.17 161.571 143.981C160.683 143.792 159.823 143.745 158.962 143.816C158.182 143.887 157.456 144.028 156.784 144.265C156.085 144.501 155.466 144.808 154.901 145.234C154.337 145.636 153.826 146.155 153.395 146.77C152.965 147.385 152.642 148.117 152.427 148.944L150.706 155.279C150.652 155.491 150.599 155.657 150.572 155.846C150.545 156.011 150.518 156.2 150.518 156.366C150.491 156.98 150.599 157.5 150.841 157.926C151.083 158.351 151.405 158.682 151.782 158.942C152.185 159.202 152.615 159.368 153.153 159.462C153.664 159.557 154.202 159.58 154.713 159.533C155.224 159.486 155.843 159.368 156.623 159.178C157.376 158.989 158.236 158.588 159.204 157.973L160.468 153.222L156.838 153.53L157.483 151.072L164.099 150.528L161.867 158.942L161.92 158.918Z" fill="#FFE7D8"/>
<path d="M177.419 159.85L182.906 139.619L197.724 138.39L197.078 140.871L185.272 141.84L183.551 148.246L193.905 147.395L193.233 149.853L182.852 150.704L181.104 157.132L193.905 156.092L193.233 158.55L177.419 159.85Z" fill="#FFE7D8"/>
<path d="M231.884 153.138C230.754 154.131 229.544 154.864 228.226 155.336C226.909 155.809 225.618 156.093 224.381 156.187C223.386 156.258 222.471 156.211 221.611 156.045C220.75 155.856 220.024 155.549 219.379 155.124C218.733 154.698 218.249 154.131 217.899 153.469C217.55 152.807 217.415 152.004 217.442 151.106C217.469 150.68 217.55 150.207 217.684 149.64L219.486 142.857C220.024 140.801 221.127 139.123 222.794 137.846C224.461 136.57 226.559 135.814 229.168 135.601C230.432 135.506 231.615 135.554 232.771 135.719C233.928 135.908 234.842 136.286 235.541 136.83L233.578 139.052C233.094 138.673 232.422 138.39 231.534 138.201C230.647 138.012 229.786 137.964 228.926 138.035C228.146 138.106 227.42 138.248 226.747 138.484C226.048 138.721 225.43 139.028 224.865 139.453C224.3 139.855 223.789 140.375 223.359 140.99C222.928 141.604 222.606 142.337 222.391 143.164L220.669 149.498C220.616 149.687 220.562 149.877 220.535 150.066C220.508 150.231 220.481 150.42 220.481 150.586C220.454 151.2 220.562 151.72 220.804 152.146C221.046 152.571 221.369 152.902 221.745 153.162C222.149 153.422 222.579 153.587 223.117 153.682C223.628 153.776 224.166 153.8 224.677 153.753C225.188 153.705 225.806 153.587 226.586 153.398C227.339 153.209 228.2 152.807 229.168 152.193L230.432 147.442L226.801 147.749L227.447 145.291L234.062 144.748L231.83 153.162L231.884 153.138Z" fill="#FFE7D8"/>
<path d="M265.521 146.304C264.983 148.313 263.907 149.967 262.347 151.267C260.761 152.567 258.636 153.324 255.947 153.536C254.925 153.631 253.984 153.56 253.096 153.371C252.209 153.182 251.429 152.851 250.783 152.402C250.138 151.953 249.627 151.362 249.251 150.653C248.874 149.944 248.713 149.117 248.766 148.147C248.793 147.628 248.901 147.084 249.062 146.517L250.783 140.23C251.321 138.197 252.37 136.543 253.876 135.243C255.409 133.966 257.507 133.21 260.169 132.974C261.299 132.879 262.321 132.95 263.235 133.163C264.149 133.376 264.929 133.73 265.575 134.203C266.22 134.675 266.704 135.266 267.027 135.952C267.35 136.637 267.511 137.417 267.457 138.244C267.43 138.693 267.376 139.095 267.269 139.497L265.494 146.257L265.521 146.304ZM264.257 140.017C264.311 139.828 264.364 139.639 264.391 139.45C264.418 139.261 264.445 139.095 264.445 138.953C264.472 138.315 264.364 137.772 264.149 137.299C263.907 136.826 263.585 136.472 263.154 136.164C262.724 135.857 262.24 135.668 261.702 135.55C261.164 135.432 260.573 135.408 259.954 135.455C258.367 135.597 257.05 136.046 255.974 136.874C254.898 137.677 254.145 138.906 253.715 140.561L252.101 146.564C252.047 146.8 251.994 147.013 251.967 147.226C251.94 147.438 251.913 147.628 251.913 147.84C251.886 148.478 251.967 149.022 252.182 149.447C252.397 149.896 252.693 150.227 253.069 150.487C253.446 150.747 253.903 150.936 254.414 151.031C254.925 151.126 255.49 151.149 256.081 151.102C257.964 150.936 259.443 150.393 260.492 149.447C261.541 148.502 262.294 147.202 262.778 145.548L264.284 139.97L264.257 140.017Z" fill="#FFE7D8"/>
</svg>
