<svg width="520" height="158" viewBox="0 0 520 158" fill="none" xmlns="http://www.w3.org/2000/svg">
<path d="M343.521 41.5552L318.394 43.7139L284.728 157.029L309.855 154.87L343.521 41.5552Z" fill="white"/>
<path d="M318.403 43.7091L311.671 66.3701L412.18 57.7352L418.913 35.0742L318.403 43.7091Z" fill="white"/>
<path d="M291.456 134.363L284.723 157.024L385.233 148.39L391.965 125.729L291.456 134.363Z" fill="white"/>
<path d="M405.424 80.4039L380.297 82.5625L360.098 150.551L385.224 148.393L405.424 80.4039Z" fill="white"/>
<path d="M355.198 84.7248L348.465 107.386L398.72 103.068L405.453 80.4073L355.198 84.7248Z" fill="white"/>
<path d="M469.171 30.7544L444.045 32.9131L410.379 146.228L435.505 144.069L469.171 30.7544Z" fill="white"/>
<path d="M444.023 32.9171L437.291 55.5781L512.671 49.1021L519.404 26.4411L444.023 32.9171Z" fill="white"/>
<path d="M417.099 123.57L410.366 146.231L485.747 139.755L492.48 117.094L417.099 123.57Z" fill="white"/>
<path d="M519.42 26.439L494.294 28.5977L460.628 141.912L485.755 139.754L519.42 26.439Z" fill="white"/>
<path d="M130.864 15.6685L105.737 17.8271L72.0715 131.142L97.1979 128.983L130.864 15.6685Z" fill="#FFE7D8"/>
<path d="M105.721 17.8302L98.9883 40.4912L199.498 31.8563L206.23 9.19533L105.721 17.8302Z" fill="#FFE7D8"/>
<path d="M78.8044 108.482L72.0718 131.143L172.581 122.508L179.314 99.8467L78.8044 108.482Z" fill="#FFE7D8"/>
<path d="M192.772 54.5191L167.646 56.6777L147.446 124.667L172.573 122.508L192.772 54.5191Z" fill="#FFE7D8"/>
<path d="M142.51 58.839L135.777 81.5L186.032 77.1826L192.765 54.5216L142.51 58.839Z" fill="#FFE7D8"/>
<path d="M80.6074 19.982L55.481 22.1406L21.8151 135.455L46.9415 133.297L80.6074 19.982Z" fill="#FFE7D8"/>
<path fill-rule="evenodd" clip-rule="evenodd" d="M80.5977 19.9814C71.2927 51.2744 35.6325 79.0457 0.94043 82.0474L7.6637 59.3813C28.4789 57.585 49.8858 40.9222 55.4527 22.1322L80.5708 19.9814H80.5977Z" fill="#FFE7D8"/>
<path d="M256.501 4.87748L231.375 7.03613L197.709 120.351L222.836 118.192L256.501 4.87748Z" fill="#FFE7D8"/>
<path d="M231.377 7.03726L224.644 29.6982L300.025 23.2222L306.757 0.561211L231.377 7.03726Z" fill="#FFE7D8"/>
<path d="M204.452 97.6837L197.72 120.345L273.101 113.869L279.833 91.2077L204.452 97.6837Z" fill="#FFE7D8"/>
<path d="M217.891 52.3644L211.159 75.0254L261.414 70.7079L268.146 48.047L217.891 52.3644Z" fill="#FFE7D8"/>
</svg>
