<svg width="10607" height="5281" viewBox="0 0 10607 5281" fill="none" xmlns="http://www.w3.org/2000/svg">
<path d="M1324.93 767.166L1298.96 854.614L1686.79 821.302L1712.76 733.854L1324.93 767.166Z" fill="#FFE7D8"/>
<path d="M1686.78 821.303L1660.81 908.731L2048.66 875.419L2074.63 787.972L1686.78 821.303Z" fill="#FFE7D8"/>
<path d="M2100.62 700.545L2074.64 787.973L2462.47 754.662L2488.45 667.214L2100.62 700.545Z" fill="#FFE7D8"/>
<path d="M2876.27 633.901L2850.29 721.33L3238.13 688.018L3264.1 600.57L2876.27 633.901Z" fill="#FFE7D8"/>
<path d="M3651.96 567.258L3625.98 654.706L4013.81 621.375L4039.79 533.947L3651.96 567.258Z" fill="#FFE7D8"/>
<path d="M4427.62 500.618L4401.64 588.065L4789.47 554.735L4815.45 467.306L4427.62 500.618Z" fill="#FFE7D8"/>
<path d="M5203.28 433.974L5177.3 521.422L5565.15 488.11L5591.13 400.663L5203.28 433.974Z" fill="#FFE7D8"/>
<path d="M5978.96 367.331L5952.98 454.778L6340.81 421.467L6366.79 334.019L5978.96 367.331Z" fill="#FFE7D8"/>
<path d="M6754.62 300.709L6728.64 388.138L7116.49 354.826L7142.47 267.378L6754.62 300.709Z" fill="#FFE7D8"/>
<path d="M7530.3 234.066L7504.32 321.513L7892.15 288.183L7918.13 200.735L7530.3 234.066Z" fill="#FFE7D8"/>
<path d="M8305.96 167.423L8279.99 254.871L8667.84 221.54L8693.81 134.111L8305.96 167.423Z" fill="#FFE7D8"/>
<path d="M9081.64 100.782L9055.66 188.23L9443.49 154.918L9469.47 67.4707L9081.64 100.782Z" fill="#FFE7D8"/>
<path d="M9857.3 34.1387L9831.33 121.586L10219.2 88.2748L10245.2 0.827148L9857.3 34.1387Z" fill="#FFE7D8"/>
<path d="M2462.47 754.659L2436.49 842.107L2824.32 808.776L2850.3 721.328L2462.47 754.659Z" fill="#FFE7D8"/>
<path d="M3238.13 688.019L3212.15 775.467L3599.98 742.136L3625.98 654.708L3238.13 688.019Z" fill="#FFE7D8"/>
<path d="M4013.81 621.376L3987.83 708.823L4375.66 675.512L4401.64 588.064L4013.81 621.376Z" fill="#FFE7D8"/>
<path d="M4789.47 554.732L4763.49 642.18L5151.32 608.868L5177.3 521.42L4789.47 554.732Z" fill="#FFE7D8"/>
<path d="M5565.15 488.111L5539.17 575.539L5927 542.227L5952.98 454.78L5565.15 488.111Z" fill="#FFE7D8"/>
<path d="M6340.81 421.467L6314.84 508.915L6702.67 475.584L6728.64 388.136L6340.81 421.467Z" fill="#FFE7D8"/>
<path d="M7116.49 354.824L7090.51 442.272L7478.34 408.941L7504.32 321.513L7116.49 354.824Z" fill="#FFE7D8"/>
<path d="M7892.15 288.184L7866.17 375.631L8254.01 342.32L8279.98 254.872L7892.15 288.184Z" fill="#FFE7D8"/>
<path d="M8667.84 221.54L8641.86 308.988L9029.69 275.676L9055.67 188.229L8667.84 221.54Z" fill="#FFE7D8"/>
<path d="M9443.5 154.916L9417.52 242.344L9805.35 209.033L9831.33 121.585L9443.5 154.916Z" fill="#FFE7D8"/>
<path d="M10219.2 88.2752L10193.2 175.723L10581 142.392L10607 54.9443L10219.2 88.2752Z" fill="#FFE7D8"/>
<path d="M1272.98 942.063L1247 1029.51L1634.83 996.18L1660.81 908.732L1272.98 942.063Z" fill="#FFE7D8"/>
<path d="M1221.02 1116.94L1195.05 1204.39L1582.88 1171.07L1608.86 1083.63L1221.02 1116.94Z" fill="#FFE7D8"/>
<path d="M1169.06 1291.83L1143.09 1379.28L1530.92 1345.95L1556.89 1258.5L1169.06 1291.83Z" fill="#FFE7D8"/>
<path d="M1117.11 1466.71L1091.13 1554.16L1478.96 1520.85L1504.94 1433.4L1117.11 1466.71Z" fill="#FFE7D8"/>
<path d="M1065.16 1641.61L1039.18 1729.05L1427.01 1695.72L1452.99 1608.28L1065.16 1641.61Z" fill="#FFE7D8"/>
<path d="M1013.2 1816.48L987.224 1903.93L1375.05 1870.62L1401.03 1783.17L1013.2 1816.48Z" fill="#FFE7D8"/>
<path d="M961.248 1991.38L935.27 2078.82L1323.1 2045.49L1349.08 1958.04L961.248 1991.38Z" fill="#FFE7D8"/>
<path d="M909.293 2166.25L883.315 2253.7L1271.15 2220.39L1297.12 2132.94L909.293 2166.25Z" fill="#FFE7D8"/>
<path d="M857.332 2341.15L831.354 2428.6L1219.19 2395.27L1245.16 2307.82L857.332 2341.15Z" fill="#FFE7D8"/>
<path d="M805.378 2516.03L779.4 2603.47L1167.23 2570.16L1193.21 2482.71L805.378 2516.03Z" fill="#FFE7D8"/>
<path d="M753.424 2690.92L727.446 2778.37L1115.28 2745.04L1141.25 2657.61L753.424 2690.92Z" fill="#FFE7D8"/>
<path d="M701.47 2865.8L675.492 2953.24L1063.32 2919.93L1089.3 2832.48L701.47 2865.8Z" fill="#FFE7D8"/>
<path d="M649.516 3040.69L623.538 3128.14L1011.37 3094.81L1037.35 3007.38L649.516 3040.69Z" fill="#FFE7D8"/>
<path d="M597.541 3215.57L571.563 3303.02L959.413 3269.7L985.391 3182.26L597.541 3215.57Z" fill="#FFE7D8"/>
<path d="M545.587 3390.46L519.609 3477.91L907.459 3444.58L933.437 3357.15L545.587 3390.46Z" fill="#FFE7D8"/>
<path d="M493.627 3565.34L467.649 3652.79L855.499 3619.48L881.477 3532.03L493.627 3565.34Z" fill="#FFE7D8"/>
<path d="M441.672 3740.23L415.694 3827.68L803.544 3794.35L829.522 3706.92L441.672 3740.23Z" fill="#FFE7D8"/>
<path d="M389.718 3915.11L363.74 4002.56L751.59 3969.25L777.568 3881.8L389.718 3915.11Z" fill="#FFE7D8"/>
<path d="M337.764 4090.01L311.786 4177.45L699.617 4144.12L725.614 4056.7L337.764 4090.01Z" fill="#FFE7D8"/>
<path d="M285.81 4264.88L259.832 4352.33L647.663 4319.02L673.64 4231.57L285.81 4264.88Z" fill="#FFE7D8"/>
<path d="M233.856 4439.78L207.878 4527.22L595.709 4493.89L621.686 4406.46L233.856 4439.78Z" fill="#FFE7D8"/>
<path d="M181.895 4614.65L155.917 4702.1L543.748 4668.79L569.725 4581.34L181.895 4614.65Z" fill="#FFE7D8"/>
<path d="M129.941 4789.55L103.963 4877L491.794 4843.67L517.771 4756.24L129.941 4789.55Z" fill="#FFE7D8"/>
<path d="M77.9864 4964.42L52.0088 5051.87L439.839 5018.56L465.817 4931.11L77.9864 4964.42Z" fill="#FFE7D8"/>
<path d="M26.0323 5139.32L0.0546875 5226.77L387.885 5193.44L413.863 5106.01L26.0323 5139.32Z" fill="#FFE7D8"/>
<path d="M1634.83 996.178L1608.85 1083.63L1996.68 1050.31L2022.68 962.866L1634.83 996.178Z" fill="#FFE7D8"/>
<path d="M1582.88 1171.08L1556.9 1258.5L1944.73 1225.19L1970.71 1137.75L1582.88 1171.08Z" fill="#FFE7D8"/>
<path d="M1530.92 1345.95L1504.94 1433.4L1892.78 1400.09L1918.75 1312.64L1530.92 1345.95Z" fill="#FFE7D8"/>
<path d="M1478.97 1520.85L1452.99 1608.27L1840.82 1574.96L1866.8 1487.51L1478.97 1520.85Z" fill="#FFE7D8"/>
<path d="M1427.01 1695.72L1401.03 1783.17L1788.86 1749.86L1814.84 1662.41L1427.01 1695.72Z" fill="#FFE7D8"/>
<path d="M1375.05 1870.62L1349.08 1958.05L1736.91 1924.74L1762.88 1837.29L1375.05 1870.62Z" fill="#FFE7D8"/>
<path d="M1323.1 2045.49L1297.12 2132.94L1684.95 2099.63L1710.93 2012.18L1323.1 2045.49Z" fill="#FFE7D8"/>
<path d="M1271.14 2220.39L1245.17 2307.82L1633 2274.51L1658.97 2187.06L1271.14 2220.39Z" fill="#FFE7D8"/>
<path d="M1219.19 2395.26L1193.21 2482.71L1581.04 2449.4L1607.02 2361.95L1219.19 2395.26Z" fill="#FFE7D8"/>
<path d="M1167.24 2570.16L1141.26 2657.61L1529.09 2624.28L1555.07 2536.83L1167.24 2570.16Z" fill="#FFE7D8"/>
<path d="M1115.27 2745.04L1089.3 2832.49L1477.13 2799.17L1503.11 2711.73L1115.27 2745.04Z" fill="#FFE7D8"/>
<path d="M1063.32 2919.93L1037.34 3007.38L1425.17 2974.05L1451.15 2886.6L1063.32 2919.93Z" fill="#FFE7D8"/>
<path d="M1011.37 3094.81L985.389 3182.26L1373.22 3148.94L1399.2 3061.5L1011.37 3094.81Z" fill="#FFE7D8"/>
<path d="M959.412 3269.7L933.435 3357.15L1321.27 3323.82L1347.24 3236.37L959.412 3269.7Z" fill="#FFE7D8"/>
<path d="M907.458 3444.58L881.48 3532.03L1269.31 3498.72L1295.29 3411.27L907.458 3444.58Z" fill="#FFE7D8"/>
<path d="M855.504 3619.48L829.526 3706.92L1217.36 3673.59L1243.33 3586.14L855.504 3619.48Z" fill="#FFE7D8"/>
<path d="M803.543 3794.35L777.565 3881.8L1165.4 3848.49L1191.37 3761.04L803.543 3794.35Z" fill="#FFE7D8"/>
<path d="M751.589 3969.24L725.611 4056.69L1113.44 4023.36L1139.42 3935.91L751.589 3969.24Z" fill="#FFE7D8"/>
<path d="M699.615 4144.12L673.637 4231.57L1061.49 4198.26L1087.46 4110.81L699.615 4144.12Z" fill="#FFE7D8"/>
<path d="M647.661 4319.02L621.683 4406.47L1009.53 4373.14L1035.51 4285.69L647.661 4319.02Z" fill="#FFE7D8"/>
<path d="M595.707 4493.89L569.729 4581.34L957.579 4548.03L983.557 4460.58L595.707 4493.89Z" fill="#FFE7D8"/>
<path d="M543.752 4668.79L517.774 4756.24L905.624 4722.9L931.602 4635.46L543.752 4668.79Z" fill="#FFE7D8"/>
<path d="M491.798 4843.66L465.82 4931.11L853.67 4897.8L879.648 4810.35L491.798 4843.66Z" fill="#FFE7D8"/>
<path d="M439.837 5018.56L413.859 5106.01L801.709 5072.68L827.687 4985.23L439.837 5018.56Z" fill="#FFE7D8"/>
<path d="M387.883 5193.44L361.905 5280.88L749.736 5247.57L775.714 5160.12L387.883 5193.44Z" fill="#FFE7D8"/>
<path d="M2048.66 875.421L2022.68 962.869L2410.51 929.538L2436.49 842.109L2048.66 875.421Z" fill="#FFE7D8"/>
<path d="M1996.68 1050.31L1970.7 1137.74L2358.55 1104.43L2384.53 1016.98L1996.68 1050.31Z" fill="#FFE7D8"/>
<path d="M1944.73 1225.19L1918.75 1312.64L2306.6 1279.31L2332.58 1191.88L1944.73 1225.19Z" fill="#FFE7D8"/>
<path d="M1892.77 1400.09L1866.79 1487.52L2254.64 1454.2L2280.62 1366.76L1892.77 1400.09Z" fill="#FFE7D8"/>
<path d="M1840.82 1574.96L1814.84 1662.41L2202.69 1629.08L2228.67 1541.65L1840.82 1574.96Z" fill="#FFE7D8"/>
<path d="M1788.86 1749.86L1762.89 1837.29L2150.74 1803.97L2176.71 1716.53L1788.86 1749.86Z" fill="#FFE7D8"/>
<path d="M1736.91 1924.73L1710.93 2012.18L2098.76 1978.85L2124.76 1891.42L1736.91 1924.73Z" fill="#FFE7D8"/>
<path d="M1684.95 2099.63L1658.97 2187.06L2046.8 2153.74L2072.78 2066.3L1684.95 2099.63Z" fill="#FFE7D8"/>
<path d="M1633 2274.51L1607.02 2361.95L1994.85 2328.62L2020.83 2241.2L1633 2274.51Z" fill="#FFE7D8"/>
<path d="M1581.04 2449.4L1555.06 2536.83L1942.89 2503.52L1968.87 2416.07L1581.04 2449.4Z" fill="#FFE7D8"/>
<path d="M1529.09 2624.28L1503.11 2711.72L1890.94 2678.39L1916.92 2590.96L1529.09 2624.28Z" fill="#FFE7D8"/>
<path d="M1477.13 2799.17L1451.15 2886.6L1838.99 2853.29L1864.96 2765.84L1477.13 2799.17Z" fill="#FFE7D8"/>
<path d="M1425.18 2974.05L1399.2 3061.5L1787.03 3028.17L1813.01 2940.74L1425.18 2974.05Z" fill="#FFE7D8"/>
<path d="M1373.22 3148.94L1347.24 3236.37L1735.07 3203.06L1761.05 3115.61L1373.22 3148.94Z" fill="#FFE7D8"/>
<path d="M1321.26 3323.82L1295.29 3411.27L1683.12 3377.94L1709.09 3290.51L1321.26 3323.82Z" fill="#FFE7D8"/>
<path d="M1269.31 3498.71L1243.33 3586.14L1631.16 3552.83L1657.14 3465.38L1269.31 3498.71Z" fill="#FFE7D8"/>
<path d="M1217.36 3673.59L1191.38 3761.04L1579.21 3727.71L1605.19 3640.28L1217.36 3673.59Z" fill="#FFE7D8"/>
<path d="M1165.4 3848.49L1139.42 3935.92L1527.25 3902.6L1553.23 3815.16L1165.4 3848.49Z" fill="#FFE7D8"/>
<path d="M1113.45 4023.36L1087.47 4110.81L1475.3 4077.48L1501.28 3990.05L1113.45 4023.36Z" fill="#FFE7D8"/>
<path d="M1061.49 4198.26L1035.51 4285.69L1423.34 4252.37L1449.32 4164.93L1061.49 4198.26Z" fill="#FFE7D8"/>
<path d="M1009.53 4373.14L983.554 4460.58L1371.38 4427.25L1397.36 4339.82L1009.53 4373.14Z" fill="#FFE7D8"/>
<path d="M957.577 4548.03L931.6 4635.46L1319.43 4602.15L1345.41 4514.7L957.577 4548.03Z" fill="#FFE7D8"/>
<path d="M905.623 4722.91L879.646 4810.35L1267.48 4777.04L1293.45 4689.59L905.623 4722.91Z" fill="#FFE7D8"/>
<path d="M853.669 4897.8L827.691 4985.23L1215.52 4951.92L1241.5 4864.47L853.669 4897.8Z" fill="#FFE7D8"/>
<path d="M801.714 5072.67L775.717 5160.12L1163.57 5126.81L1189.54 5039.36L801.714 5072.67Z" fill="#FFE7D8"/>
<path d="M2824.32 808.777L2798.34 896.225L3186.17 862.913L3212.15 775.465L2824.32 808.777Z" fill="#FFE7D8"/>
<path d="M2772.36 983.671L2746.39 1071.1L3134.22 1037.79L3160.19 950.34L2772.36 983.671Z" fill="#FFE7D8"/>
<path d="M2720.41 1158.55L2694.43 1246L3082.26 1212.69L3108.24 1125.24L2720.41 1158.55Z" fill="#FFE7D8"/>
<path d="M2668.46 1333.44L2642.48 1420.89L3030.31 1387.56L3056.29 1300.11L2668.46 1333.44Z" fill="#FFE7D8"/>
<path d="M2616.5 1508.32L2590.52 1595.77L2978.35 1562.46L3004.33 1475.01L2616.5 1508.32Z" fill="#FFE7D8"/>
<path d="M2564.54 1683.21L2538.56 1770.66L2926.39 1737.33L2952.37 1649.88L2564.54 1683.21Z" fill="#FFE7D8"/>
<path d="M2512.59 1858.09L2486.61 1945.54L2874.44 1912.23L2900.42 1824.78L2512.59 1858.09Z" fill="#FFE7D8"/>
<path d="M2460.63 2032.99L2434.65 2120.43L2822.49 2087.1L2848.46 1999.66L2460.63 2032.99Z" fill="#FFE7D8"/>
<path d="M2408.68 2207.86L2382.7 2295.31L2770.53 2262L2796.51 2174.55L2408.68 2207.86Z" fill="#FFE7D8"/>
<path d="M2356.72 2382.76L2330.75 2470.21L2718.58 2436.87L2744.55 2349.43L2356.72 2382.76Z" fill="#FFE7D8"/>
<path d="M2304.77 2557.63L2278.79 2645.08L2666.62 2611.77L2692.6 2524.32L2304.77 2557.63Z" fill="#FFE7D8"/>
<path d="M2252.81 2732.53L2226.83 2819.98L2614.66 2786.65L2640.64 2699.2L2252.81 2732.53Z" fill="#FFE7D8"/>
<path d="M2200.83 2907.41L2174.86 2994.85L2562.71 2961.54L2588.68 2874.09L2200.83 2907.41Z" fill="#FFE7D8"/>
<path d="M2148.88 3082.3L2122.9 3169.75L2510.75 3136.42L2536.73 3048.97L2148.88 3082.3Z" fill="#FFE7D8"/>
<path d="M2096.93 3257.18L2070.95 3344.62L2458.8 3311.31L2484.78 3223.86L2096.93 3257.18Z" fill="#FFE7D8"/>
<path d="M2044.97 3432.07L2018.99 3519.52L2406.84 3486.19L2432.82 3398.74L2044.97 3432.07Z" fill="#FFE7D8"/>
<path d="M1993.02 3606.95L1967.04 3694.4L2354.89 3661.09L2380.87 3573.64L1993.02 3606.95Z" fill="#FFE7D8"/>
<path d="M1941.06 3781.84L1915.09 3869.29L2302.94 3835.96L2328.91 3748.51L1941.06 3781.84Z" fill="#FFE7D8"/>
<path d="M1889.1 3956.72L1863.12 4044.17L2250.96 4010.85L2276.93 3923.41L1889.1 3956.72Z" fill="#FFE7D8"/>
<path d="M1837.15 4131.62L1811.17 4219.06L2199 4185.73L2224.98 4098.29L1837.15 4131.62Z" fill="#FFE7D8"/>
<path d="M1785.19 4306.49L1759.22 4393.94L2147.05 4360.63L2173.03 4273.18L1785.19 4306.49Z" fill="#FFE7D8"/>
<path d="M1733.24 4481.39L1707.26 4568.83L2095.09 4535.5L2121.07 4448.06L1733.24 4481.39Z" fill="#FFE7D8"/>
<path d="M1681.29 4656.26L1655.31 4743.71L2043.14 4710.4L2069.12 4622.95L1681.29 4656.26Z" fill="#FFE7D8"/>
<path d="M1629.33 4831.16L1603.35 4918.61L1991.18 4885.28L2017.16 4797.83L1629.33 4831.16Z" fill="#FFE7D8"/>
<path d="M1577.37 5006.04L1551.39 5093.48L1939.22 5060.17L1965.2 4972.72L1577.37 5006.04Z" fill="#FFE7D8"/>
<path d="M3599.98 742.136L3574 829.584L3961.85 796.272L3987.83 708.825L3599.98 742.136Z" fill="#FFE7D8"/>
<path d="M3548.03 917.031L3522.05 1004.48L3909.9 971.148L3935.88 883.72L3548.03 917.031Z" fill="#FFE7D8"/>
<path d="M3496.07 1091.91L3470.09 1179.35L3857.94 1146.04L3883.92 1058.59L3496.07 1091.91Z" fill="#FFE7D8"/>
<path d="M3444.12 1266.8L3418.14 1354.25L3805.99 1320.92L3831.97 1233.49L3444.12 1266.8Z" fill="#FFE7D8"/>
<path d="M3392.16 1441.68L3366.18 1529.12L3754.03 1495.81L3780.01 1408.36L3392.16 1441.68Z" fill="#FFE7D8"/>
<path d="M3340.2 1616.57L3314.23 1704.02L3702.06 1670.69L3728.05 1583.26L3340.2 1616.57Z" fill="#FFE7D8"/>
<path d="M3288.25 1791.45L3262.27 1878.9L3650.1 1845.59L3676.08 1758.14L3288.25 1791.45Z" fill="#FFE7D8"/>
<path d="M3236.29 1966.34L3210.32 2053.79L3598.15 2020.46L3624.13 1933.03L3236.29 1966.34Z" fill="#FFE7D8"/>
<path d="M3184.34 2141.22L3158.36 2228.67L3546.19 2195.36L3572.17 2107.91L3184.34 2141.22Z" fill="#FFE7D8"/>
<path d="M3132.39 2316.12L3106.41 2403.57L3494.24 2370.24L3520.22 2282.81L3132.39 2316.12Z" fill="#FFE7D8"/>
<path d="M3080.43 2490.99L3054.45 2578.44L3442.28 2545.13L3468.26 2457.68L3080.43 2490.99Z" fill="#FFE7D8"/>
<path d="M3028.47 2665.89L3002.49 2753.34L3390.32 2720L3416.3 2632.58L3028.47 2665.89Z" fill="#FFE7D8"/>
<path d="M2976.52 2840.76L2950.54 2928.21L3338.37 2894.9L3364.35 2807.45L2976.52 2840.76Z" fill="#FFE7D8"/>
<path d="M2924.56 3015.66L2898.58 3103.1L3286.42 3069.77L3312.39 2982.35L2924.56 3015.66Z" fill="#FFE7D8"/>
<path d="M2872.61 3190.54L2846.63 3277.98L3234.46 3244.67L3260.44 3157.22L2872.61 3190.54Z" fill="#FFE7D8"/>
<path d="M2820.65 3365.43L2794.68 3452.88L3182.51 3419.55L3208.49 3332.12L2820.65 3365.43Z" fill="#FFE7D8"/>
<path d="M2768.69 3540.32L2742.72 3627.75L3130.55 3594.44L3156.52 3506.99L2768.69 3540.32Z" fill="#FFE7D8"/>
<path d="M2716.74 3715.2L2690.76 3802.65L3078.59 3769.32L3104.57 3681.89L2716.74 3715.2Z" fill="#FFE7D8"/>
<path d="M2664.79 3890.1L2638.81 3977.53L3026.64 3944.22L3052.62 3856.77L2664.79 3890.1Z" fill="#FFE7D8"/>
<path d="M2612.83 4064.97L2586.85 4152.42L2974.68 4119.09L3000.66 4031.66L2612.83 4064.97Z" fill="#FFE7D8"/>
<path d="M2560.88 4239.87L2534.9 4327.3L2922.73 4293.98L2948.71 4206.54L2560.88 4239.87Z" fill="#FFE7D8"/>
<path d="M2508.92 4414.74L2482.95 4502.19L2870.78 4468.86L2896.75 4381.43L2508.92 4414.74Z" fill="#FFE7D8"/>
<path d="M2456.96 4589.64L2430.98 4677.07L2818.82 4643.76L2844.79 4556.31L2456.96 4589.64Z" fill="#FFE7D8"/>
<path d="M2405.01 4764.52L2379.01 4851.96L2766.86 4818.63L2792.84 4731.21L2405.01 4764.52Z" fill="#FFE7D8"/>
<path d="M2353.03 4939.41L2327.06 5026.84L2714.91 4993.53L2740.88 4906.08L2353.03 4939.41Z" fill="#FFE7D8"/>
<path d="M4375.66 675.512L4349.69 762.94L4737.52 729.629L4763.49 642.181L4375.66 675.512Z" fill="#FFE7D8"/>
<path d="M4323.71 850.388L4297.73 937.835L4685.56 904.505L4711.54 817.076L4323.71 850.388Z" fill="#FFE7D8"/>
<path d="M4271.75 1025.28L4245.77 1112.71L4633.6 1079.4L4659.58 991.951L4271.75 1025.28Z" fill="#FFE7D8"/>
<path d="M4219.79 1200.16L4193.82 1287.61L4581.65 1254.28L4607.62 1166.85L4219.79 1200.16Z" fill="#FFE7D8"/>
<path d="M4167.84 1375.06L4141.86 1462.48L4529.69 1429.17L4555.67 1341.72L4167.84 1375.06Z" fill="#FFE7D8"/>
<path d="M4115.89 1549.93L4089.91 1637.38L4477.74 1604.05L4503.72 1516.62L4115.89 1549.93Z" fill="#FFE7D8"/>
<path d="M4063.93 1724.82L4037.95 1812.25L4425.78 1778.94L4451.76 1691.49L4063.93 1724.82Z" fill="#FFE7D8"/>
<path d="M4011.98 1899.7L3986 1987.15L4373.83 1953.82L4399.81 1866.39L4011.98 1899.7Z" fill="#FFE7D8"/>
<path d="M3960.02 2074.6L3934.04 2162.03L4321.87 2128.72L4347.85 2041.27L3960.02 2074.6Z" fill="#FFE7D8"/>
<path d="M3908.06 2249.47L3882.08 2336.92L4269.92 2303.59L4295.89 2216.16L3908.06 2249.47Z" fill="#FFE7D8"/>
<path d="M3856.11 2424.37L3830.13 2511.8L4217.96 2478.48L4243.94 2391.04L3856.11 2424.37Z" fill="#FFE7D8"/>
<path d="M3804.13 2599.24L3778.16 2686.69L4166.01 2653.38L4191.98 2565.93L3804.13 2599.24Z" fill="#FFE7D8"/>
<path d="M3752.18 2774.14L3726.2 2861.57L4114.05 2828.26L4140.03 2740.81L3752.18 2774.14Z" fill="#FFE7D8"/>
<path d="M3700.23 2949.02L3674.25 3036.46L4062.1 3003.15L4088.08 2915.71L3700.23 2949.02Z" fill="#FFE7D8"/>
<path d="M3648.27 3123.91L3622.29 3211.34L4010.14 3178.03L4036.12 3090.58L3648.27 3123.91Z" fill="#FFE7D8"/>
<path d="M3596.31 3298.79L3570.33 3386.23L3958.18 3352.92L3984.16 3265.48L3596.31 3298.79Z" fill="#FFE7D8"/>
<path d="M3544.36 3473.68L3518.38 3561.11L3906.23 3527.8L3932.21 3440.35L3544.36 3473.68Z" fill="#FFE7D8"/>
<path d="M3492.4 3648.56L3466.42 3736.01L3854.26 3702.7L3880.23 3615.25L3492.4 3648.56Z" fill="#FFE7D8"/>
<path d="M3440.45 3823.45L3414.47 3910.88L3802.3 3877.57L3828.28 3790.12L3440.45 3823.45Z" fill="#FFE7D8"/>
<path d="M3388.49 3998.33L3362.52 4085.78L3750.35 4052.47L3776.32 3965.02L3388.49 3998.33Z" fill="#FFE7D8"/>
<path d="M3336.54 4173.23L3310.56 4260.66L3698.39 4227.34L3724.37 4139.9L3336.54 4173.23Z" fill="#FFE7D8"/>
<path d="M3284.58 4348.1L3258.6 4435.55L3646.43 4402.24L3672.41 4314.79L3284.58 4348.1Z" fill="#FFE7D8"/>
<path d="M3232.63 4523L3206.65 4610.43L3594.48 4577.11L3620.46 4489.67L3232.63 4523Z" fill="#FFE7D8"/>
<path d="M3180.67 4697.87L3154.69 4785.32L3542.52 4752.01L3568.5 4664.56L3180.67 4697.87Z" fill="#FFE7D8"/>
<path d="M3128.72 4872.77L3102.74 4960.2L3490.57 4926.89L3516.55 4839.44L3128.72 4872.77Z" fill="#FFE7D8"/>
<path d="M5151.32 608.868L5125.34 696.316L5513.19 662.985L5539.17 575.538L5151.32 608.868Z" fill="#FFE7D8"/>
<path d="M5099.37 783.744L5073.39 871.192L5461.24 837.88L5487.22 750.433L5099.37 783.744Z" fill="#FFE7D8"/>
<path d="M5047.41 958.641L5021.43 1046.09L5409.28 1012.76L5435.26 925.311L5047.41 958.641Z" fill="#FFE7D8"/>
<path d="M4995.46 1133.52L4969.48 1220.96L5357.33 1187.65L5383.31 1100.21L4995.46 1133.52Z" fill="#FFE7D8"/>
<path d="M4943.5 1308.41L4917.52 1395.86L5305.36 1362.53L5331.35 1275.08L4943.5 1308.41Z" fill="#FFE7D8"/>
<path d="M4891.55 1483.29L4865.57 1570.73L5253.4 1537.42L5279.38 1449.98L4891.55 1483.29Z" fill="#FFE7D8"/>
<path d="M4839.59 1658.18L4813.62 1745.63L5201.45 1712.3L5227.43 1624.85L4839.59 1658.18Z" fill="#FFE7D8"/>
<path d="M4787.63 1833.06L4761.66 1920.51L5149.49 1887.2L5175.46 1799.75L4787.63 1833.06Z" fill="#FFE7D8"/>
<path d="M4735.68 2007.95L4709.7 2095.4L5097.53 2062.07L5123.51 1974.62L4735.68 2007.95Z" fill="#FFE7D8"/>
<path d="M4683.73 2182.83L4657.75 2270.28L5045.58 2236.97L5071.56 2149.52L4683.73 2182.83Z" fill="#FFE7D8"/>
<path d="M4631.77 2357.73L4605.79 2445.18L4993.62 2411.85L5019.6 2324.4L4631.77 2357.73Z" fill="#FFE7D8"/>
<path d="M4579.82 2532.6L4553.84 2620.05L4941.67 2586.74L4967.65 2499.29L4579.82 2532.6Z" fill="#FFE7D8"/>
<path d="M4527.86 2707.5L4501.88 2794.95L4889.72 2761.61L4915.69 2674.17L4527.86 2707.5Z" fill="#FFE7D8"/>
<path d="M4475.9 2882.37L4449.92 2969.82L4837.76 2936.51L4863.73 2849.06L4475.9 2882.37Z" fill="#FFE7D8"/>
<path d="M4423.95 3057.27L4397.97 3144.72L4785.8 3111.39L4811.78 3023.94L4423.95 3057.27Z" fill="#FFE7D8"/>
<path d="M4371.99 3232.15L4346.02 3319.59L4733.85 3286.28L4759.82 3198.83L4371.99 3232.15Z" fill="#FFE7D8"/>
<path d="M4320.04 3407.04L4294.06 3494.49L4681.89 3461.16L4707.87 3373.71L4320.04 3407.04Z" fill="#FFE7D8"/>
<path d="M4268.09 3581.92L4242.11 3669.36L4629.94 3636.05L4655.92 3548.61L4268.09 3581.92Z" fill="#FFE7D8"/>
<path d="M4216.13 3756.81L4190.15 3844.26L4577.98 3810.93L4603.96 3723.48L4216.13 3756.81Z" fill="#FFE7D8"/>
<path d="M4164.18 3931.69L4138.2 4019.14L4526.03 3985.83L4552.01 3898.38L4164.18 3931.69Z" fill="#FFE7D8"/>
<path d="M4112.22 4106.58L4086.24 4194.03L4474.07 4160.7L4500.05 4073.25L4112.22 4106.58Z" fill="#FFE7D8"/>
<path d="M4060.26 4281.46L4034.28 4368.91L4422.11 4335.6L4448.09 4248.15L4060.26 4281.46Z" fill="#FFE7D8"/>
<path d="M4008.31 4456.36L3982.31 4543.8L4370.16 4510.47L4396.14 4423.03L4008.31 4456.36Z" fill="#FFE7D8"/>
<path d="M3956.33 4631.23L3930.36 4718.68L4318.21 4685.37L4344.18 4597.92L3956.33 4631.23Z" fill="#FFE7D8"/>
<path d="M3904.38 4806.13L3878.4 4893.58L4266.25 4860.24L4292.23 4772.82L3904.38 4806.13Z" fill="#FFE7D8"/>
<path d="M5927 542.226L5901.02 629.673L6288.86 596.342L6314.83 508.914L5927 542.226Z" fill="#FFE7D8"/>
<path d="M5875.05 717.104L5849.07 804.551L6236.9 771.24L6262.88 683.792L5875.05 717.104Z" fill="#FFE7D8"/>
<path d="M5823.09 891.999L5797.12 979.447L6184.95 946.116L6210.92 858.688L5823.09 891.999Z" fill="#FFE7D8"/>
<path d="M5771.14 1066.87L5745.16 1154.32L6132.99 1121.01L6158.97 1033.56L5771.14 1066.87Z" fill="#FFE7D8"/>
<path d="M5719.19 1241.77L5693.21 1329.22L6081.04 1295.89L6107.02 1208.46L5719.19 1241.77Z" fill="#FFE7D8"/>
<path d="M5667.22 1416.67L5641.25 1504.09L6029.08 1470.78L6055.06 1383.33L5667.22 1416.67Z" fill="#FFE7D8"/>
<path d="M5615.27 1591.54L5589.29 1678.99L5977.12 1645.66L6003.1 1558.23L5615.27 1591.54Z" fill="#FFE7D8"/>
<path d="M5563.32 1766.44L5537.34 1853.86L5925.17 1820.55L5951.15 1733.1L5563.32 1766.44Z" fill="#FFE7D8"/>
<path d="M5511.36 1941.31L5485.38 2028.76L5873.21 1995.43L5899.19 1908L5511.36 1941.31Z" fill="#FFE7D8"/>
<path d="M5459.41 2116.21L5433.43 2203.64L5821.26 2170.33L5847.24 2082.88L5459.41 2116.21Z" fill="#FFE7D8"/>
<path d="M5407.45 2291.08L5381.46 2378.53L5769.31 2345.2L5795.28 2257.77L5407.45 2291.08Z" fill="#FFE7D8"/>
<path d="M5355.48 2465.98L5329.5 2553.41L5717.35 2520.1L5743.33 2432.65L5355.48 2465.98Z" fill="#FFE7D8"/>
<path d="M5303.52 2640.85L5277.54 2728.3L5665.39 2694.97L5691.37 2607.54L5303.52 2640.85Z" fill="#FFE7D8"/>
<path d="M5251.56 2815.75L5225.59 2903.18L5613.44 2869.87L5639.41 2782.42L5251.56 2815.75Z" fill="#FFE7D8"/>
<path d="M5199.61 2990.63L5173.63 3078.08L5561.48 3044.74L5587.46 2957.32L5199.61 2990.63Z" fill="#FFE7D8"/>
<path d="M5147.66 3165.52L5121.68 3252.95L5509.53 3219.64L5535.51 3132.19L5147.66 3165.52Z" fill="#FFE7D8"/>
<path d="M5095.7 3340.4L5069.72 3427.85L5457.55 3394.51L5483.53 3307.09L5095.7 3340.4Z" fill="#FFE7D8"/>
<path d="M5043.75 3515.3L5017.77 3602.72L5405.6 3569.41L5431.58 3481.96L5043.75 3515.3Z" fill="#FFE7D8"/>
<path d="M4991.79 3690.17L4965.81 3777.62L5353.64 3744.29L5379.62 3656.86L4991.79 3690.17Z" fill="#FFE7D8"/>
<path d="M4939.83 3865.07L4913.85 3952.49L5301.69 3919.18L5327.66 3831.73L4939.83 3865.07Z" fill="#FFE7D8"/>
<path d="M4887.88 4039.94L4861.9 4127.39L5249.73 4094.06L5275.71 4006.63L4887.88 4039.94Z" fill="#FFE7D8"/>
<path d="M4835.92 4214.83L4809.95 4302.26L5197.78 4268.95L5223.76 4181.5L4835.92 4214.83Z" fill="#FFE7D8"/>
<path d="M4783.97 4389.71L4757.99 4477.16L5145.82 4443.83L5171.8 4356.4L4783.97 4389.71Z" fill="#FFE7D8"/>
<path d="M4732.02 4564.61L4706.04 4652.04L5093.87 4618.73L5119.85 4531.28L4732.02 4564.61Z" fill="#FFE7D8"/>
<path d="M4680.06 4739.48L4654.08 4826.93L5041.92 4793.6L5067.89 4706.17L4680.06 4739.48Z" fill="#FFE7D8"/>
<path d="M6702.66 475.585L6676.69 563.033L7064.54 529.721L7090.51 442.273L6702.66 475.585Z" fill="#FFE7D8"/>
<path d="M6650.71 650.479L6624.73 737.908L7012.58 704.596L7038.56 617.148L6650.71 650.479Z" fill="#FFE7D8"/>
<path d="M6598.76 825.355L6572.78 912.803L6960.63 879.491L6986.61 792.043L6598.76 825.355Z" fill="#FFE7D8"/>
<path d="M6546.8 1000.25L6520.82 1087.68L6908.67 1054.37L6934.65 966.922L6546.8 1000.25Z" fill="#FFE7D8"/>
<path d="M6494.84 1175.13L6468.86 1262.58L6856.69 1229.26L6882.67 1141.82L6494.84 1175.13Z" fill="#FFE7D8"/>
<path d="M6442.89 1350.02L6416.91 1437.45L6804.74 1404.14L6830.72 1316.69L6442.89 1350.02Z" fill="#FFE7D8"/>
<path d="M6390.93 1524.9L6364.96 1612.35L6752.79 1579.03L6778.76 1491.59L6390.93 1524.9Z" fill="#FFE7D8"/>
<path d="M6338.98 1699.8L6313 1787.22L6700.83 1753.91L6726.81 1666.46L6338.98 1699.8Z" fill="#FFE7D8"/>
<path d="M6287.02 1874.67L6261.05 1962.12L6648.88 1928.81L6674.86 1841.36L6287.02 1874.67Z" fill="#FFE7D8"/>
<path d="M6235.07 2049.57L6209.09 2136.99L6596.92 2103.68L6622.9 2016.23L6235.07 2049.57Z" fill="#FFE7D8"/>
<path d="M6183.11 2224.44L6157.13 2311.89L6544.96 2278.58L6570.94 2191.13L6183.11 2224.44Z" fill="#FFE7D8"/>
<path d="M6131.16 2399.34L6105.18 2486.77L6493.01 2453.46L6518.99 2366.01L6131.16 2399.34Z" fill="#FFE7D8"/>
<path d="M6079.2 2574.21L6053.22 2661.66L6441.05 2628.35L6467.03 2540.9L6079.2 2574.21Z" fill="#FFE7D8"/>
<path d="M6027.25 2749.11L6001.27 2836.54L6389.1 2803.23L6415.08 2715.78L6027.25 2749.11Z" fill="#FFE7D8"/>
<path d="M5975.29 2923.98L5949.32 3011.43L6337.15 2978.12L6363.12 2890.67L5975.29 2923.98Z" fill="#FFE7D8"/>
<path d="M5923.34 3098.88L5897.36 3186.31L6285.19 3153L6311.17 3065.55L5923.34 3098.88Z" fill="#FFE7D8"/>
<path d="M5871.38 3273.76L5845.4 3361.21L6233.23 3327.89L6259.21 3240.45L5871.38 3273.76Z" fill="#FFE7D8"/>
<path d="M5819.42 3448.65L5793.45 3536.1L6181.28 3502.77L6207.25 3415.32L5819.42 3448.65Z" fill="#FFE7D8"/>
<path d="M5767.47 3623.53L5741.49 3710.98L6129.32 3677.66L6155.3 3590.22L5767.47 3623.53Z" fill="#FFE7D8"/>
<path d="M5715.52 3798.42L5689.54 3885.87L6077.37 3852.54L6103.35 3765.09L5715.52 3798.42Z" fill="#FFE7D8"/>
<path d="M5663.56 3973.3L5637.58 4060.75L6025.41 4027.44L6051.39 3939.99L5663.56 3973.3Z" fill="#FFE7D8"/>
<path d="M5611.61 4148.19L5585.61 4235.64L5973.46 4202.31L5999.44 4114.86L5611.61 4148.19Z" fill="#FFE7D8"/>
<path d="M5559.63 4323.07L5533.66 4410.52L5921.51 4377.21L5947.48 4289.76L5559.63 4323.07Z" fill="#FFE7D8"/>
<path d="M5507.67 4497.96L5481.69 4585.41L5869.54 4552.08L5895.52 4464.63L5507.67 4497.96Z" fill="#FFE7D8"/>
<path d="M5455.72 4672.84L5429.74 4760.29L5817.59 4726.98L5843.57 4639.53L5455.72 4672.84Z" fill="#FFE7D8"/>
<path d="M7478.35 408.941L7452.37 496.389L7840.2 463.078L7866.18 375.63L7478.35 408.941Z" fill="#FFE7D8"/>
<path d="M7426.39 583.839L7400.41 671.286L7788.24 637.955L7814.22 550.508L7426.39 583.839Z" fill="#FFE7D8"/>
<path d="M7374.43 758.714L7348.46 846.162L7736.29 812.85L7762.26 725.403L7374.43 758.714Z" fill="#FFE7D8"/>
<path d="M7322.48 933.608L7296.5 1021.06L7684.33 987.725L7710.31 900.277L7322.48 933.608Z" fill="#FFE7D8"/>
<path d="M7270.52 1108.48L7244.55 1195.93L7632.38 1162.62L7658.35 1075.17L7270.52 1108.48Z" fill="#FFE7D8"/>
<path d="M7218.57 1283.38L7192.59 1370.83L7580.42 1337.5L7606.4 1250.05L7218.57 1283.38Z" fill="#FFE7D8"/>
<path d="M7166.62 1458.26L7140.64 1545.7L7528.47 1512.39L7554.45 1424.95L7166.62 1458.26Z" fill="#FFE7D8"/>
<path d="M7114.66 1633.15L7088.68 1720.6L7476.51 1687.27L7502.49 1599.82L7114.66 1633.15Z" fill="#FFE7D8"/>
<path d="M7062.7 1808.03L7036.72 1895.48L7424.55 1862.16L7450.53 1774.72L7062.7 1808.03Z" fill="#FFE7D8"/>
<path d="M7010.75 1982.92L6984.75 2070.37L7372.6 2037.04L7398.58 1949.59L7010.75 1982.92Z" fill="#FFE7D8"/>
<path d="M6958.77 2157.8L6932.79 2245.25L7320.64 2211.94L7346.62 2124.49L6958.77 2157.8Z" fill="#FFE7D8"/>
<path d="M6906.82 2332.7L6880.84 2420.14L7268.69 2386.81L7294.67 2299.36L6906.82 2332.7Z" fill="#FFE7D8"/>
<path d="M6854.86 2507.57L6828.89 2595.02L7216.74 2561.71L7242.71 2474.26L6854.86 2507.57Z" fill="#FFE7D8"/>
<path d="M6802.91 2682.47L6776.93 2769.91L7164.78 2736.58L7190.76 2649.15L6802.91 2682.47Z" fill="#FFE7D8"/>
<path d="M6750.96 2857.34L6724.98 2944.79L7112.83 2911.48L7138.81 2824.03L6750.96 2857.34Z" fill="#FFE7D8"/>
<path d="M6698.99 3032.24L6673.02 3119.69L7060.85 3086.36L7086.83 2998.93L6698.99 3032.24Z" fill="#FFE7D8"/>
<path d="M6647.04 3207.11L6621.06 3294.56L7008.89 3261.25L7034.87 3173.8L6647.04 3207.11Z" fill="#FFE7D8"/>
<path d="M6595.09 3382.01L6569.11 3469.46L6956.94 3436.13L6982.92 3348.7L6595.09 3382.01Z" fill="#FFE7D8"/>
<path d="M6543.13 3556.88L6517.15 3644.33L6904.99 3611.02L6930.96 3523.57L6543.13 3556.88Z" fill="#FFE7D8"/>
<path d="M6491.18 3731.78L6465.2 3819.23L6853.03 3785.9L6879.01 3698.47L6491.18 3731.78Z" fill="#FFE7D8"/>
<path d="M6439.22 3906.66L6413.25 3994.1L6801.08 3960.79L6827.05 3873.35L6439.22 3906.66Z" fill="#FFE7D8"/>
<path d="M6387.26 4081.55L6361.29 4169L6749.12 4135.67L6775.09 4048.24L6387.26 4081.55Z" fill="#FFE7D8"/>
<path d="M6335.31 4256.43L6309.33 4343.87L6697.16 4310.56L6723.14 4223.12L6335.31 4256.43Z" fill="#FFE7D8"/>
<path d="M6283.36 4431.33L6257.38 4518.77L6645.21 4485.44L6671.19 4398.01L6283.36 4431.33Z" fill="#FFE7D8"/>
<path d="M6231.4 4606.2L6205.42 4693.65L6593.25 4660.34L6619.23 4572.89L6231.4 4606.2Z" fill="#FFE7D8"/>
<path d="M8254.01 342.32L8228.03 429.748L8615.88 396.437L8641.86 308.989L8254.01 342.32Z" fill="#FFE7D8"/>
<path d="M8202.05 517.196L8176.07 604.643L8563.92 571.313L8589.9 483.884L8202.05 517.196Z" fill="#FFE7D8"/>
<path d="M8150.1 692.09L8124.12 779.518L8511.97 746.207L8537.95 658.759L8150.1 692.09Z" fill="#FFE7D8"/>
<path d="M8098.14 866.966L8072.16 954.414L8459.99 921.083L8485.97 833.654L8098.14 866.966Z" fill="#FFE7D8"/>
<path d="M8046.19 1041.86L8020.21 1129.29L8408.04 1095.98L8434.02 1008.53L8046.19 1041.86Z" fill="#FFE7D8"/>
<path d="M7994.23 1216.74L7968.25 1304.19L8356.09 1270.86L8382.06 1183.43L7994.23 1216.74Z" fill="#FFE7D8"/>
<path d="M7942.27 1391.63L7916.29 1479.06L8304.13 1445.75L8330.1 1358.3L7942.27 1391.63Z" fill="#FFE7D8"/>
<path d="M7890.32 1566.51L7864.34 1653.96L8252.17 1620.63L8278.15 1533.2L7890.32 1566.51Z" fill="#FFE7D8"/>
<path d="M7838.36 1741.4L7812.39 1828.83L8200.22 1795.52L8226.19 1708.07L7838.36 1741.4Z" fill="#FFE7D8"/>
<path d="M7786.41 1916.28L7760.43 2003.73L8148.26 1970.4L8174.24 1882.97L7786.41 1916.28Z" fill="#FFE7D8"/>
<path d="M7734.46 2091.18L7708.48 2178.6L8096.31 2145.29L8122.29 2057.85L7734.46 2091.18Z" fill="#FFE7D8"/>
<path d="M7682.5 2266.05L7656.52 2353.5L8044.35 2320.17L8070.33 2232.74L7682.5 2266.05Z" fill="#FFE7D8"/>
<path d="M7630.55 2440.95L7604.57 2528.37L7992.4 2495.06L8018.38 2407.62L7630.55 2440.95Z" fill="#FFE7D8"/>
<path d="M7578.59 2615.83L7552.62 2703.27L7940.45 2669.94L7966.42 2582.51L7578.59 2615.83Z" fill="#FFE7D8"/>
<path d="M7526.63 2790.72L7500.65 2878.15L7888.49 2844.84L7914.46 2757.39L7526.63 2790.72Z" fill="#FFE7D8"/>
<path d="M7474.68 2965.59L7448.7 3053.04L7836.53 3019.71L7862.51 2932.28L7474.68 2965.59Z" fill="#FFE7D8"/>
<path d="M7422.72 3140.49L7396.75 3227.92L7784.58 3194.61L7810.55 3107.16L7422.72 3140.49Z" fill="#FFE7D8"/>
<path d="M7370.77 3315.37L7344.79 3402.82L7732.62 3369.49L7758.6 3282.06L7370.77 3315.37Z" fill="#FFE7D8"/>
<path d="M7318.82 3490.26L7292.84 3577.69L7680.67 3544.38L7706.65 3456.93L7318.82 3490.26Z" fill="#FFE7D8"/>
<path d="M7266.85 3665.14L7240.88 3752.59L7628.71 3719.25L7654.68 3631.83L7266.85 3665.14Z" fill="#FFE7D8"/>
<path d="M7214.91 3840.03L7188.91 3927.46L7576.76 3894.15L7602.74 3806.7L7214.91 3840.03Z" fill="#FFE7D8"/>
<path d="M7162.93 4014.91L7136.95 4102.36L7524.8 4069.03L7550.78 3981.6L7162.93 4014.91Z" fill="#FFE7D8"/>
<path d="M7110.97 4189.81L7084.99 4277.23L7472.84 4243.92L7498.82 4156.47L7110.97 4189.81Z" fill="#FFE7D8"/>
<path d="M7059.02 4364.68L7033.04 4452.13L7420.89 4418.8L7446.87 4331.37L7059.02 4364.68Z" fill="#FFE7D8"/>
<path d="M7007.06 4539.57L6981.09 4627L7368.94 4593.69L7394.91 4506.24L7007.06 4539.57Z" fill="#FFE7D8"/>
<path d="M9029.69 275.677L9003.71 363.105L9391.54 329.793L9417.52 242.346L9029.69 275.677Z" fill="#FFE7D8"/>
<path d="M8977.73 450.552L8951.75 538L9339.59 504.688L9365.56 417.241L8977.73 450.552Z" fill="#FFE7D8"/>
<path d="M8925.78 625.446L8899.8 712.874L9287.63 679.563L9313.61 592.115L8925.78 625.446Z" fill="#FFE7D8"/>
<path d="M8873.82 800.325L8847.85 887.773L9235.68 854.461L9261.65 767.014L8873.82 800.325Z" fill="#FFE7D8"/>
<path d="M8821.86 975.22L8795.89 1062.65L9183.72 1029.34L9209.69 941.889L8821.86 975.22Z" fill="#FFE7D8"/>
<path d="M8769.91 1150.09L8743.93 1237.54L9131.76 1204.23L9157.74 1116.78L8769.91 1150.09Z" fill="#FFE7D8"/>
<path d="M8717.95 1324.99L8691.98 1412.44L9079.81 1379.11L9105.78 1291.66L8717.95 1324.99Z" fill="#FFE7D8"/>
<path d="M8666 1499.87L8640.02 1587.31L9027.85 1554L9053.83 1466.55L8666 1499.87Z" fill="#FFE7D8"/>
<path d="M8614.05 1674.76L8588.05 1762.21L8975.9 1728.88L9001.88 1641.43L8614.05 1674.76Z" fill="#FFE7D8"/>
<path d="M8562.07 1849.64L8536.09 1937.09L8923.94 1903.77L8949.92 1816.33L8562.07 1849.64Z" fill="#FFE7D8"/>
<path d="M8510.12 2024.53L8484.14 2111.98L8871.99 2078.65L8897.97 1991.2L8510.12 2024.53Z" fill="#FFE7D8"/>
<path d="M8458.16 2199.41L8432.19 2286.86L8820.04 2253.55L8846.01 2166.1L8458.16 2199.41Z" fill="#FFE7D8"/>
<path d="M8406.2 2374.31L8380.23 2461.75L8768.08 2428.42L8794.05 2340.98L8406.2 2374.31Z" fill="#FFE7D8"/>
<path d="M8354.25 2549.18L8328.27 2636.63L8716.12 2603.32L8742.1 2515.87L8354.25 2549.18Z" fill="#FFE7D8"/>
<path d="M8302.29 2724.08L8276.32 2811.52L8664.15 2778.19L8690.12 2690.75L8302.29 2724.08Z" fill="#FFE7D8"/>
<path d="M8250.34 2898.95L8224.36 2986.4L8612.19 2953.09L8638.17 2865.64L8250.34 2898.95Z" fill="#FFE7D8"/>
<path d="M8198.39 3073.85L8172.41 3161.3L8560.24 3127.97L8586.22 3040.52L8198.39 3073.85Z" fill="#FFE7D8"/>
<path d="M8146.43 3248.72L8120.45 3336.17L8508.29 3302.86L8534.26 3215.41L8146.43 3248.72Z" fill="#FFE7D8"/>
<path d="M8094.48 3423.62L8068.5 3511.07L8456.33 3477.74L8482.31 3390.29L8094.48 3423.62Z" fill="#FFE7D8"/>
<path d="M8042.52 3598.49L8016.54 3685.94L8404.37 3652.63L8430.35 3565.18L8042.52 3598.49Z" fill="#FFE7D8"/>
<path d="M7990.56 3773.39L7964.58 3860.84L8352.42 3827.51L8378.39 3740.06L7990.56 3773.39Z" fill="#FFE7D8"/>
<path d="M7938.61 3948.27L7912.63 4035.72L8300.46 4002.4L8326.44 3914.96L7938.61 3948.27Z" fill="#FFE7D8"/>
<path d="M7886.65 4123.16L7860.68 4210.61L8248.51 4177.28L8274.49 4089.83L7886.65 4123.16Z" fill="#FFE7D8"/>
<path d="M7834.7 4298.04L7808.72 4385.49L8196.55 4352.17L8222.53 4264.73L7834.7 4298.04Z" fill="#FFE7D8"/>
<path d="M7782.74 4472.93L7756.76 4560.38L8144.59 4527.05L8170.57 4439.6L7782.74 4472.93Z" fill="#FFE7D8"/>
<path d="M9805.35 209.034L9779.37 296.481L10167.2 263.151L10193.2 175.722L9805.35 209.034Z" fill="#FFE7D8"/>
<path d="M9753.39 383.909L9727.42 471.356L10115.3 438.045L10141.2 350.597L9753.39 383.909Z" fill="#FFE7D8"/>
<path d="M9701.44 558.807L9675.46 646.254L10063.3 612.923L10089.3 525.495L9701.44 558.807Z" fill="#FFE7D8"/>
<path d="M9649.49 733.682L9623.51 821.129L10011.3 787.818L10037.3 700.37L9649.49 733.682Z" fill="#FFE7D8"/>
<path d="M9597.53 908.576L9571.55 996.024L9959.38 962.693L9985.36 875.265L9597.53 908.576Z" fill="#FFE7D8"/>
<path d="M9545.57 1083.45L9519.59 1170.9L9907.42 1137.59L9933.4 1050.14L9545.57 1083.45Z" fill="#FFE7D8"/>
<path d="M9493.62 1258.35L9467.64 1345.8L9855.47 1312.47L9881.45 1225.04L9493.62 1258.35Z" fill="#FFE7D8"/>
<path d="M9441.66 1433.22L9415.69 1520.67L9803.52 1487.36L9829.49 1399.91L9441.66 1433.22Z" fill="#FFE7D8"/>
<path d="M9389.71 1608.12L9363.73 1695.57L9751.56 1662.24L9777.54 1574.81L9389.71 1608.12Z" fill="#FFE7D8"/>
<path d="M9337.75 1782.99L9311.78 1870.44L9699.61 1837.13L9725.59 1749.68L9337.75 1782.99Z" fill="#FFE7D8"/>
<path d="M9285.79 1957.89L9259.82 2045.34L9647.65 2012.01L9673.62 1924.58L9285.79 1957.89Z" fill="#FFE7D8"/>
<path d="M9233.84 2132.77L9207.86 2220.22L9595.69 2186.9L9621.67 2099.46L9233.84 2132.77Z" fill="#FFE7D8"/>
<path d="M9181.89 2307.66L9155.91 2395.11L9543.74 2361.78L9569.72 2274.35L9181.89 2307.66Z" fill="#FFE7D8"/>
<path d="M9129.93 2482.54L9103.95 2569.99L9491.78 2536.67L9517.76 2449.23L9129.93 2482.54Z" fill="#FFE7D8"/>
<path d="M9077.98 2657.43L9052 2744.88L9439.83 2711.55L9465.81 2624.12L9077.98 2657.43Z" fill="#FFE7D8"/>
<path d="M9026.02 2832.31L9000.05 2919.76L9387.88 2886.45L9413.85 2799L9026.02 2832.31Z" fill="#FFE7D8"/>
<path d="M8974.07 3007.21L8948.09 3094.65L9335.92 3061.32L9361.9 2973.89L8974.07 3007.21Z" fill="#FFE7D8"/>
<path d="M8922.11 3182.08L8896.13 3269.53L9283.96 3236.22L9309.94 3148.77L8922.11 3182.08Z" fill="#FFE7D8"/>
<path d="M8870.15 3356.98L8844.18 3444.42L9232.01 3411.09L9257.99 3323.66L8870.15 3356.98Z" fill="#FFE7D8"/>
<path d="M8818.2 3531.87L8792.22 3619.3L9180.05 3585.99L9206.03 3498.54L8818.2 3531.87Z" fill="#FFE7D8"/>
<path d="M8766.23 3706.75L8740.25 3794.2L9128.1 3760.87L9154.08 3673.44L8766.23 3706.75Z" fill="#FFE7D8"/>
<path d="M8714.27 3881.64L8688.29 3969.07L9076.14 3935.76L9102.12 3848.31L8714.27 3881.64Z" fill="#FFE7D8"/>
<path d="M8662.32 4056.52L8636.34 4143.97L9024.19 4110.64L9050.17 4023.21L8662.32 4056.52Z" fill="#FFE7D8"/>
<path d="M8610.36 4231.42L8584.39 4318.85L8972.24 4285.53L8998.21 4198.09L8610.36 4231.42Z" fill="#FFE7D8"/>
<path d="M8558.4 4406.29L8532.42 4493.74L8920.27 4460.41L8946.25 4372.98L8558.4 4406.29Z" fill="#FFE7D8"/>
<path d="M2410.51 929.538L2384.54 1016.99L2772.37 983.674L2798.34 896.227L2410.51 929.538Z" fill="#FFE7D8"/>
<path d="M2358.56 1104.43L2332.58 1191.88L2720.41 1158.55L2746.39 1071.1L2358.56 1104.43Z" fill="#FFE7D8"/>
<path d="M2306.6 1279.31L2280.62 1366.76L2668.45 1333.44L2694.43 1246L2306.6 1279.31Z" fill="#FFE7D8"/>
<path d="M2254.64 1454.2L2228.67 1541.65L2616.5 1508.32L2642.47 1420.89L2254.64 1454.2Z" fill="#FFE7D8"/>
<path d="M2202.69 1629.08L2176.71 1716.53L2564.54 1683.22L2590.52 1595.77L2202.69 1629.08Z" fill="#FFE7D8"/>
<path d="M2150.74 1803.98L2124.76 1891.42L2512.59 1858.09L2538.57 1770.66L2150.74 1803.98Z" fill="#FFE7D8"/>
<path d="M2098.76 1978.85L2072.78 2066.3L2460.63 2032.99L2486.61 1945.54L2098.76 1978.85Z" fill="#FFE7D8"/>
<path d="M2046.81 2153.75L2020.83 2241.19L2408.68 2207.86L2434.66 2120.43L2046.81 2153.75Z" fill="#FFE7D8"/>
<path d="M1994.85 2328.62L1968.88 2416.07L2356.73 2382.76L2382.7 2295.31L1994.85 2328.62Z" fill="#FFE7D8"/>
<path d="M1942.89 2503.52L1916.91 2590.97L2304.76 2557.64L2330.74 2470.21L1942.89 2503.52Z" fill="#FFE7D8"/>
<path d="M1890.94 2678.39L1864.96 2765.84L2252.81 2732.53L2278.79 2645.08L1890.94 2678.39Z" fill="#FFE7D8"/>
<path d="M1838.98 2853.29L1813.01 2940.74L2200.84 2907.41L2226.83 2819.98L1838.98 2853.29Z" fill="#FFE7D8"/>
<path d="M1787.03 3028.16L1761.05 3115.61L2148.88 3082.3L2174.86 2994.85L1787.03 3028.16Z" fill="#FFE7D8"/>
<path d="M1735.08 3203.06L1709.1 3290.51L2096.93 3257.18L2122.91 3169.75L1735.08 3203.06Z" fill="#FFE7D8"/>
<path d="M1683.12 3377.94L1657.14 3465.38L2044.97 3432.07L2070.95 3344.62L1683.12 3377.94Z" fill="#FFE7D8"/>
<path d="M1631.16 3552.83L1605.18 3640.28L1993.01 3606.95L2018.99 3519.52L1631.16 3552.83Z" fill="#FFE7D8"/>
<path d="M1579.21 3727.71L1553.23 3815.15L1941.06 3781.84L1967.04 3694.4L1579.21 3727.71Z" fill="#FFE7D8"/>
<path d="M1527.25 3902.6L1501.27 3990.05L1889.1 3956.72L1915.08 3869.29L1527.25 3902.6Z" fill="#FFE7D8"/>
<path d="M1475.3 4077.48L1449.32 4164.93L1837.15 4131.62L1863.13 4044.17L1475.3 4077.48Z" fill="#FFE7D8"/>
<path d="M1423.34 4252.38L1397.37 4339.82L1785.2 4306.49L1811.17 4219.06L1423.34 4252.38Z" fill="#FFE7D8"/>
<path d="M1371.39 4427.25L1345.41 4514.7L1733.24 4481.39L1759.22 4393.94L1371.39 4427.25Z" fill="#FFE7D8"/>
<path d="M1319.44 4602.15L1293.46 4689.6L1681.29 4656.26L1707.27 4568.84L1319.44 4602.15Z" fill="#FFE7D8"/>
<path d="M1267.47 4777.04L1241.5 4864.47L1629.33 4831.16L1655.3 4743.71L1267.47 4777.04Z" fill="#FFE7D8"/>
<path d="M1215.52 4951.92L1189.54 5039.37L1577.37 5006.03L1603.35 4918.61L1215.52 4951.92Z" fill="#FFE7D8"/>
<path d="M1163.57 5126.81L1137.59 5214.24L1525.42 5180.93L1551.4 5093.48L1163.57 5126.81Z" fill="#FFE7D8"/>
<path d="M3186.17 862.913L3160.19 950.342L3548.02 917.03L3574 829.583L3186.17 862.913Z" fill="#FFE7D8"/>
<path d="M3134.21 1037.79L3108.24 1125.24L3496.07 1091.91L3522.05 1004.48L3134.21 1037.79Z" fill="#FFE7D8"/>
<path d="M3082.26 1212.68L3056.28 1300.11L3444.11 1266.8L3470.09 1179.35L3082.26 1212.68Z" fill="#FFE7D8"/>
<path d="M3030.31 1387.56L3004.33 1475.01L3392.16 1441.68L3418.14 1354.25L3030.31 1387.56Z" fill="#FFE7D8"/>
<path d="M2978.35 1562.46L2952.38 1649.88L3340.21 1616.57L3366.18 1529.12L2978.35 1562.46Z" fill="#FFE7D8"/>
<path d="M2926.4 1737.33L2900.42 1824.78L3288.25 1791.45L3314.23 1704.02L2926.4 1737.33Z" fill="#FFE7D8"/>
<path d="M2874.44 1912.23L2848.47 1999.65L3236.3 1966.34L3262.27 1878.9L2874.44 1912.23Z" fill="#FFE7D8"/>
<path d="M2822.48 2087.11L2796.5 2174.55L3184.34 2141.22L3210.31 2053.79L2822.48 2087.11Z" fill="#FFE7D8"/>
<path d="M2770.53 2262L2744.55 2349.43L3132.38 2316.12L3158.36 2228.67L2770.53 2262Z" fill="#FFE7D8"/>
<path d="M2718.57 2436.88L2692.6 2524.32L3080.43 2490.99L3106.41 2403.56L2718.57 2436.88Z" fill="#FFE7D8"/>
<path d="M2666.62 2611.77L2640.64 2699.2L3028.47 2665.89L3054.45 2578.44L2666.62 2611.77Z" fill="#FFE7D8"/>
<path d="M2614.67 2786.65L2588.69 2874.09L2976.52 2840.76L3002.5 2753.33L2614.67 2786.65Z" fill="#FFE7D8"/>
<path d="M2562.71 2961.54L2536.73 3048.97L2924.57 3015.66L2950.54 2928.21L2562.71 2961.54Z" fill="#FFE7D8"/>
<path d="M2510.75 3136.42L2484.77 3223.87L2872.6 3190.54L2898.58 3103.11L2510.75 3136.42Z" fill="#FFE7D8"/>
<path d="M2458.8 3311.31L2432.82 3398.74L2820.65 3365.43L2846.63 3277.98L2458.8 3311.31Z" fill="#FFE7D8"/>
<path d="M2406.84 3486.19L2380.87 3573.64L2768.7 3540.32L2794.67 3452.88L2406.84 3486.19Z" fill="#FFE7D8"/>
<path d="M2354.89 3661.09L2328.91 3748.51L2716.74 3715.2L2742.72 3627.75L2354.89 3661.09Z" fill="#FFE7D8"/>
<path d="M2302.93 3835.96L2276.94 3923.41L2664.79 3890.1L2690.76 3802.65L2302.93 3835.96Z" fill="#FFE7D8"/>
<path d="M2250.96 4010.86L2224.98 4098.28L2612.83 4064.97L2638.81 3977.52L2250.96 4010.86Z" fill="#FFE7D8"/>
<path d="M2199.01 4185.73L2173.03 4273.18L2560.88 4239.87L2586.86 4152.42L2199.01 4185.73Z" fill="#FFE7D8"/>
<path d="M2147.04 4360.63L2121.07 4448.06L2508.92 4414.75L2534.9 4327.3L2147.04 4360.63Z" fill="#FFE7D8"/>
<path d="M2095.09 4535.5L2069.11 4622.95L2456.96 4589.64L2482.94 4502.19L2095.09 4535.5Z" fill="#FFE7D8"/>
<path d="M2043.14 4710.4L2017.16 4797.83L2405.01 4764.52L2430.99 4677.07L2043.14 4710.4Z" fill="#FFE7D8"/>
<path d="M1991.18 4885.27L1965.21 4972.72L2353.04 4939.41L2379.01 4851.96L1991.18 4885.27Z" fill="#FFE7D8"/>
<path d="M1939.23 5060.17L1913.25 5147.6L2301.08 5114.29L2327.06 5026.84L1939.23 5060.17Z" fill="#FFE7D8"/>
<path d="M3961.85 796.27L3935.87 883.717L4323.7 850.387L4349.68 762.939L3961.85 796.27Z" fill="#FFE7D8"/>
<path d="M3909.9 971.148L3883.92 1058.6L4271.75 1025.28L4297.73 937.837L3909.9 971.148Z" fill="#FFE7D8"/>
<path d="M3857.94 1146.04L3831.97 1233.49L4219.8 1200.16L4245.77 1112.71L3857.94 1146.04Z" fill="#FFE7D8"/>
<path d="M3805.99 1320.92L3780.01 1408.37L4167.84 1375.05L4193.82 1287.61L3805.99 1320.92Z" fill="#FFE7D8"/>
<path d="M3754.04 1495.81L3728.06 1583.26L4115.89 1549.93L4141.87 1462.48L3754.04 1495.81Z" fill="#FFE7D8"/>
<path d="M3702.05 1670.69L3676.08 1758.14L4063.93 1724.82L4089.9 1637.38L3702.05 1670.69Z" fill="#FFE7D8"/>
<path d="M3650.1 1845.59L3624.12 1933.03L4011.97 1899.7L4037.95 1812.25L3650.1 1845.59Z" fill="#FFE7D8"/>
<path d="M3598.15 2020.46L3572.17 2107.91L3960.02 2074.6L3986 1987.15L3598.15 2020.46Z" fill="#FFE7D8"/>
<path d="M3546.19 2195.36L3520.21 2282.8L3908.06 2249.47L3934.04 2162.03L3546.19 2195.36Z" fill="#FFE7D8"/>
<path d="M3494.24 2370.23L3468.26 2457.68L3856.11 2424.37L3882.09 2336.92L3494.24 2370.23Z" fill="#FFE7D8"/>
<path d="M3442.28 2545.13L3416.31 2632.58L3804.14 2599.25L3830.13 2511.8L3442.28 2545.13Z" fill="#FFE7D8"/>
<path d="M3390.33 2720L3364.35 2807.45L3752.18 2774.14L3778.16 2686.69L3390.33 2720Z" fill="#FFE7D8"/>
<path d="M3338.37 2894.9L3312.39 2982.35L3700.22 2949.02L3726.2 2861.57L3338.37 2894.9Z" fill="#FFE7D8"/>
<path d="M3286.41 3069.77L3260.44 3157.22L3648.27 3123.91L3674.24 3036.46L3286.41 3069.77Z" fill="#FFE7D8"/>
<path d="M3234.46 3244.67L3208.48 3332.12L3596.31 3298.79L3622.29 3211.34L3234.46 3244.67Z" fill="#FFE7D8"/>
<path d="M3182.51 3419.55L3156.53 3507L3544.36 3473.68L3570.34 3386.24L3182.51 3419.55Z" fill="#FFE7D8"/>
<path d="M3130.55 3594.44L3104.57 3681.89L3492.4 3648.56L3518.38 3561.11L3130.55 3594.44Z" fill="#FFE7D8"/>
<path d="M3078.6 3769.32L3052.62 3856.77L3440.45 3823.45L3466.43 3736.01L3078.6 3769.32Z" fill="#FFE7D8"/>
<path d="M3026.64 3944.22L3000.66 4031.66L3388.49 3998.33L3414.47 3910.88L3026.64 3944.22Z" fill="#FFE7D8"/>
<path d="M2974.68 4119.09L2948.7 4206.54L3336.54 4173.23L3362.51 4085.78L2974.68 4119.09Z" fill="#FFE7D8"/>
<path d="M2922.73 4293.99L2896.75 4381.43L3284.58 4348.1L3310.56 4260.65L2922.73 4293.99Z" fill="#FFE7D8"/>
<path d="M2870.77 4468.86L2844.8 4556.31L3232.63 4523L3258.6 4435.55L2870.77 4468.86Z" fill="#FFE7D8"/>
<path d="M2818.82 4643.76L2792.84 4731.21L3180.67 4697.88L3206.65 4610.43L2818.82 4643.76Z" fill="#FFE7D8"/>
<path d="M2766.87 4818.63L2740.89 4906.08L3128.72 4872.77L3154.7 4785.32L2766.87 4818.63Z" fill="#FFE7D8"/>
<path d="M2714.91 4993.53L2688.93 5080.98L3076.76 5047.64L3102.74 4960.2L2714.91 4993.53Z" fill="#FFE7D8"/>
<path d="M4737.51 729.63L4711.54 817.078L5099.37 783.747L5125.34 696.318L4737.51 729.63Z" fill="#FFE7D8"/>
<path d="M4685.56 904.505L4659.58 991.953L5047.41 958.641L5073.39 871.193L4685.56 904.505Z" fill="#FFE7D8"/>
<path d="M4633.61 1079.4L4607.63 1166.85L4995.46 1133.52L5021.44 1046.09L4633.61 1079.4Z" fill="#FFE7D8"/>
<path d="M4581.65 1254.27L4555.67 1341.72L4943.5 1308.41L4969.48 1220.96L4581.65 1254.27Z" fill="#FFE7D8"/>
<path d="M4529.69 1429.17L4503.71 1516.62L4891.54 1483.29L4917.52 1395.86L4529.69 1429.17Z" fill="#FFE7D8"/>
<path d="M4477.74 1604.05L4451.76 1691.5L4839.59 1658.18L4865.57 1570.74L4477.74 1604.05Z" fill="#FFE7D8"/>
<path d="M4425.78 1778.94L4399.8 1866.39L4787.64 1833.06L4813.61 1745.63L4425.78 1778.94Z" fill="#FFE7D8"/>
<path d="M4373.83 1953.82L4347.85 2041.27L4735.68 2007.95L4761.66 1920.51L4373.83 1953.82Z" fill="#FFE7D8"/>
<path d="M4321.87 2128.71L4295.9 2216.16L4683.73 2182.83L4709.7 2095.4L4321.87 2128.71Z" fill="#FFE7D8"/>
<path d="M4269.92 2303.59L4243.94 2391.04L4631.77 2357.73L4657.75 2270.28L4269.92 2303.59Z" fill="#FFE7D8"/>
<path d="M4217.96 2478.49L4191.98 2565.93L4579.81 2532.6L4605.79 2445.17L4217.96 2478.49Z" fill="#FFE7D8"/>
<path d="M4166 2653.38L4140.03 2740.81L4527.86 2707.5L4553.84 2620.05L4166 2653.38Z" fill="#FFE7D8"/>
<path d="M4114.05 2828.26L4088.07 2915.7L4475.9 2882.37L4501.88 2794.95L4114.05 2828.26Z" fill="#FFE7D8"/>
<path d="M4062.1 3003.15L4036.12 3090.58L4423.95 3057.27L4449.93 2969.82L4062.1 3003.15Z" fill="#FFE7D8"/>
<path d="M4010.14 3178.03L3984.17 3265.48L4372 3232.15L4397.97 3144.72L4010.14 3178.03Z" fill="#FFE7D8"/>
<path d="M3958.19 3352.92L3932.21 3440.35L4320.04 3407.04L4346.02 3319.59L3958.19 3352.92Z" fill="#FFE7D8"/>
<path d="M3906.23 3527.8L3880.24 3615.25L4268.09 3581.92L4294.06 3494.49L3906.23 3527.8Z" fill="#FFE7D8"/>
<path d="M3854.25 3702.7L3828.28 3790.13L4216.13 3756.81L4242.1 3669.37L3854.25 3702.7Z" fill="#FFE7D8"/>
<path d="M3802.3 3877.57L3776.32 3965.02L4164.17 3931.69L4190.15 3844.26L3802.3 3877.57Z" fill="#FFE7D8"/>
<path d="M3750.34 4052.47L3724.37 4139.89L4112.22 4106.58L4138.19 4019.14L3750.34 4052.47Z" fill="#FFE7D8"/>
<path d="M3698.39 4227.34L3672.41 4314.79L4060.26 4281.46L4086.24 4194.03L3698.39 4227.34Z" fill="#FFE7D8"/>
<path d="M3646.44 4402.24L3620.46 4489.67L4008.31 4456.36L4034.29 4368.91L3646.44 4402.24Z" fill="#FFE7D8"/>
<path d="M3594.48 4577.12L3568.5 4664.56L3956.34 4631.23L3982.31 4543.8L3594.48 4577.12Z" fill="#FFE7D8"/>
<path d="M3542.52 4752.01L3516.54 4839.44L3904.37 4806.13L3930.35 4718.68L3542.52 4752.01Z" fill="#FFE7D8"/>
<path d="M3490.57 4926.89L3464.59 5014.33L3852.42 4981L3878.4 4893.57L3490.57 4926.89Z" fill="#FFE7D8"/>
<path d="M5513.2 662.986L5487.22 750.434L5875.05 717.103L5901.03 629.675L5513.2 662.986Z" fill="#FFE7D8"/>
<path d="M5461.24 837.881L5435.27 925.309L5823.1 891.997L5849.07 804.55L5461.24 837.881Z" fill="#FFE7D8"/>
<path d="M5409.28 1012.76L5383.3 1100.2L5771.13 1066.87L5797.11 979.444L5409.28 1012.76Z" fill="#FFE7D8"/>
<path d="M5357.33 1187.65L5331.35 1275.08L5719.18 1241.77L5745.16 1154.32L5357.33 1187.65Z" fill="#FFE7D8"/>
<path d="M5305.35 1362.53L5279.38 1449.98L5667.23 1416.67L5693.2 1329.22L5305.35 1362.53Z" fill="#FFE7D8"/>
<path d="M5253.4 1537.42L5227.42 1624.85L5615.27 1591.54L5641.25 1504.09L5253.4 1537.42Z" fill="#FFE7D8"/>
<path d="M5201.45 1712.3L5175.47 1799.75L5563.32 1766.43L5589.3 1678.99L5201.45 1712.3Z" fill="#FFE7D8"/>
<path d="M5149.49 1887.2L5123.51 1974.62L5511.36 1941.31L5537.34 1853.87L5149.49 1887.2Z" fill="#FFE7D8"/>
<path d="M5097.54 2062.07L5071.56 2149.52L5459.41 2116.21L5485.39 2028.76L5097.54 2062.07Z" fill="#FFE7D8"/>
<path d="M5045.58 2236.97L5019.6 2324.4L5407.45 2291.08L5433.43 2203.64L5045.58 2236.97Z" fill="#FFE7D8"/>
<path d="M4993.62 2411.84L4967.64 2499.29L5355.47 2465.98L5381.45 2378.53L4993.62 2411.84Z" fill="#FFE7D8"/>
<path d="M4941.67 2586.74L4915.69 2674.17L5303.52 2640.86L5329.5 2553.41L4941.67 2586.74Z" fill="#FFE7D8"/>
<path d="M4889.71 2761.62L4863.74 2849.06L5251.57 2815.75L5277.54 2728.3L4889.71 2761.62Z" fill="#FFE7D8"/>
<path d="M4837.76 2936.51L4811.78 3023.94L5199.61 2990.63L5225.59 2903.18L4837.76 2936.51Z" fill="#FFE7D8"/>
<path d="M4785.81 3111.39L4759.83 3198.83L5147.66 3165.52L5173.64 3078.07L4785.81 3111.39Z" fill="#FFE7D8"/>
<path d="M4733.84 3286.28L4707.87 3373.71L5095.7 3340.4L5121.68 3252.95L4733.84 3286.28Z" fill="#FFE7D8"/>
<path d="M4681.89 3461.16L4655.91 3548.61L5043.74 3515.3L5069.72 3427.85L4681.89 3461.16Z" fill="#FFE7D8"/>
<path d="M4629.94 3636.05L4603.96 3723.48L4991.79 3690.17L5017.77 3602.72L4629.94 3636.05Z" fill="#FFE7D8"/>
<path d="M4577.98 3810.93L4552 3898.38L4939.84 3865.06L4965.81 3777.62L4577.98 3810.93Z" fill="#FFE7D8"/>
<path d="M4526.03 3985.82L4500.05 4073.25L4887.88 4039.94L4913.86 3952.49L4526.03 3985.82Z" fill="#FFE7D8"/>
<path d="M4474.07 4160.7L4448.1 4248.15L4835.93 4214.84L4861.9 4127.39L4474.07 4160.7Z" fill="#FFE7D8"/>
<path d="M4422.11 4335.6L4396.13 4423.02L4783.97 4389.71L4809.94 4302.27L4422.11 4335.6Z" fill="#FFE7D8"/>
<path d="M4370.16 4510.47L4344.18 4597.92L4732.01 4564.61L4757.99 4477.16L4370.16 4510.47Z" fill="#FFE7D8"/>
<path d="M4318.2 4685.37L4292.23 4772.82L4680.06 4739.49L4706.03 4652.04L4318.2 4685.37Z" fill="#FFE7D8"/>
<path d="M4266.25 4860.25L4240.27 4947.69L4628.1 4914.38L4654.08 4826.93L4266.25 4860.25Z" fill="#FFE7D8"/>
<path d="M6288.86 596.343L6262.88 683.79L6650.71 650.479L6676.69 563.031L6288.86 596.343Z" fill="#FFE7D8"/>
<path d="M6236.9 771.24L6210.92 858.688L6598.75 825.357L6624.73 737.909L6236.9 771.24Z" fill="#FFE7D8"/>
<path d="M6184.94 946.116L6158.97 1033.56L6546.8 1000.25L6572.78 912.805L6184.94 946.116Z" fill="#FFE7D8"/>
<path d="M6132.99 1121.01L6107.01 1208.46L6494.84 1175.13L6520.82 1087.68L6132.99 1121.01Z" fill="#FFE7D8"/>
<path d="M6081.04 1295.89L6055.06 1383.33L6442.89 1350.02L6468.87 1262.57L6081.04 1295.89Z" fill="#FFE7D8"/>
<path d="M6029.08 1470.78L6003.1 1558.23L6390.94 1524.9L6416.91 1437.45L6029.08 1470.78Z" fill="#FFE7D8"/>
<path d="M5977.13 1645.66L5951.15 1733.11L6338.98 1699.8L6364.96 1612.35L5977.13 1645.66Z" fill="#FFE7D8"/>
<path d="M5925.17 1820.55L5899.19 1908L6287.02 1874.67L6313 1787.22L5925.17 1820.55Z" fill="#FFE7D8"/>
<path d="M5873.21 1995.43L5847.24 2082.88L6235.07 2049.56L6261.04 1962.12L5873.21 1995.43Z" fill="#FFE7D8"/>
<path d="M5821.26 2170.33L5795.28 2257.77L6183.11 2224.44L6209.09 2137L5821.26 2170.33Z" fill="#FFE7D8"/>
<path d="M5769.3 2345.2L5743.33 2432.65L6131.16 2399.34L6157.14 2311.89L5769.3 2345.2Z" fill="#FFE7D8"/>
<path d="M5717.35 2520.1L5691.37 2607.54L6079.2 2574.21L6105.18 2486.77L5717.35 2520.1Z" fill="#FFE7D8"/>
<path d="M5665.4 2694.97L5639.42 2782.42L6027.25 2749.11L6053.23 2661.66L5665.4 2694.97Z" fill="#FFE7D8"/>
<path d="M5613.44 2869.87L5587.46 2957.31L5975.29 2923.98L6001.27 2836.54L5613.44 2869.87Z" fill="#FFE7D8"/>
<path d="M5561.48 3044.75L5535.5 3132.19L5923.33 3098.88L5949.31 3011.43L5561.48 3044.75Z" fill="#FFE7D8"/>
<path d="M5509.53 3219.64L5483.53 3307.09L5871.38 3273.76L5897.36 3186.31L5509.53 3219.64Z" fill="#FFE7D8"/>
<path d="M5457.55 3394.51L5431.58 3481.96L5819.43 3448.65L5845.4 3361.2L5457.55 3394.51Z" fill="#FFE7D8"/>
<path d="M5405.6 3569.41L5379.62 3656.86L5767.47 3623.53L5793.45 3536.1L5405.6 3569.41Z" fill="#FFE7D8"/>
<path d="M5353.64 3744.29L5327.67 3831.74L5715.52 3798.42L5741.49 3710.98L5353.64 3744.29Z" fill="#FFE7D8"/>
<path d="M5301.69 3919.18L5275.71 4006.63L5663.56 3973.3L5689.54 3885.87L5301.69 3919.18Z" fill="#FFE7D8"/>
<path d="M5249.73 4094.06L5223.75 4181.51L5611.6 4148.19L5637.58 4060.75L5249.73 4094.06Z" fill="#FFE7D8"/>
<path d="M5197.78 4268.95L5171.8 4356.4L5559.63 4323.07L5585.61 4235.64L5197.78 4268.95Z" fill="#FFE7D8"/>
<path d="M5145.82 4443.83L5119.84 4531.27L5507.67 4497.96L5533.65 4410.52L5145.82 4443.83Z" fill="#FFE7D8"/>
<path d="M5093.87 4618.73L5067.89 4706.17L5455.72 4672.84L5481.7 4585.41L5093.87 4618.73Z" fill="#FFE7D8"/>
<path d="M5041.91 4793.6L5015.94 4881.05L5403.77 4847.74L5429.74 4760.29L5041.91 4793.6Z" fill="#FFE7D8"/>
<path d="M7064.54 529.721L7038.56 617.15L7426.39 583.838L7452.37 496.391L7064.54 529.721Z" fill="#FFE7D8"/>
<path d="M7012.58 704.597L6986.6 792.045L7374.43 758.714L7400.41 671.286L7012.58 704.597Z" fill="#FFE7D8"/>
<path d="M6960.63 879.491L6934.65 966.919L7322.48 933.608L7348.46 846.16L6960.63 879.491Z" fill="#FFE7D8"/>
<path d="M6908.67 1054.37L6882.68 1141.81L7270.53 1108.48L7296.5 1021.06L6908.67 1054.37Z" fill="#FFE7D8"/>
<path d="M6856.7 1229.26L6830.72 1316.69L7218.57 1283.38L7244.55 1195.93L6856.7 1229.26Z" fill="#FFE7D8"/>
<path d="M6804.74 1404.14L6778.77 1491.59L7166.62 1458.26L7192.59 1370.83L6804.74 1404.14Z" fill="#FFE7D8"/>
<path d="M6752.78 1579.03L6726.81 1666.46L7114.66 1633.15L7140.63 1545.7L6752.78 1579.03Z" fill="#FFE7D8"/>
<path d="M6700.83 1753.91L6674.85 1841.36L7062.7 1808.03L7088.68 1720.6L6700.83 1753.91Z" fill="#FFE7D8"/>
<path d="M6648.88 1928.81L6622.9 2016.24L7010.75 1982.92L7036.73 1895.48L6648.88 1928.81Z" fill="#FFE7D8"/>
<path d="M6596.92 2103.68L6570.94 2191.13L6958.77 2157.8L6984.75 2070.37L6596.92 2103.68Z" fill="#FFE7D8"/>
<path d="M6544.97 2278.58L6518.99 2366.01L6906.82 2332.69L6932.8 2245.25L6544.97 2278.58Z" fill="#FFE7D8"/>
<path d="M6493.01 2453.45L6467.04 2540.9L6854.87 2507.57L6880.84 2420.14L6493.01 2453.45Z" fill="#FFE7D8"/>
<path d="M6441.05 2628.35L6415.07 2715.78L6802.91 2682.47L6828.88 2595.02L6441.05 2628.35Z" fill="#FFE7D8"/>
<path d="M6389.1 2803.23L6363.12 2890.67L6750.95 2857.34L6776.93 2769.92L6389.1 2803.23Z" fill="#FFE7D8"/>
<path d="M6337.14 2978.12L6311.17 3065.55L6699 3032.24L6724.97 2944.79L6337.14 2978.12Z" fill="#FFE7D8"/>
<path d="M6285.19 3153L6259.21 3240.44L6647.04 3207.11L6673.02 3119.69L6285.19 3153Z" fill="#FFE7D8"/>
<path d="M6233.24 3327.89L6207.26 3415.32L6595.09 3382.01L6621.07 3294.56L6233.24 3327.89Z" fill="#FFE7D8"/>
<path d="M6181.28 3502.77L6155.3 3590.22L6543.13 3556.89L6569.11 3469.46L6181.28 3502.77Z" fill="#FFE7D8"/>
<path d="M6129.33 3677.66L6103.35 3765.09L6491.18 3731.78L6517.16 3644.33L6129.33 3677.66Z" fill="#FFE7D8"/>
<path d="M6077.37 3852.54L6051.39 3939.99L6439.22 3906.66L6465.2 3819.23L6077.37 3852.54Z" fill="#FFE7D8"/>
<path d="M6025.41 4027.43L5999.43 4114.86L6387.27 4081.55L6413.24 3994.1L6025.41 4027.43Z" fill="#FFE7D8"/>
<path d="M5973.46 4202.31L5947.48 4289.76L6335.31 4256.43L6361.29 4169L5973.46 4202.31Z" fill="#FFE7D8"/>
<path d="M5921.5 4377.21L5895.53 4464.64L6283.36 4431.32L6309.33 4343.88L5921.5 4377.21Z" fill="#FFE7D8"/>
<path d="M5869.55 4552.08L5843.57 4639.53L6231.4 4606.2L6257.38 4518.77L5869.55 4552.08Z" fill="#FFE7D8"/>
<path d="M5817.59 4726.98L5791.61 4814.41L6179.44 4781.09L6205.42 4693.65L5817.59 4726.98Z" fill="#FFE7D8"/>
<path d="M7840.2 463.078L7814.22 550.506L8202.05 517.195L8228.03 429.747L7840.2 463.078Z" fill="#FFE7D8"/>
<path d="M7788.24 637.954L7762.27 725.401L8150.1 692.09L8176.07 604.642L7788.24 637.954Z" fill="#FFE7D8"/>
<path d="M7736.29 812.851L7710.31 900.279L8098.14 866.968L8124.12 779.52L7736.29 812.851Z" fill="#FFE7D8"/>
<path d="M7684.34 987.727L7658.36 1075.17L8046.19 1041.86L8072.17 954.415L7684.34 987.727Z" fill="#FFE7D8"/>
<path d="M7632.38 1162.62L7606.4 1250.05L7994.23 1216.74L8020.21 1129.29L7632.38 1162.62Z" fill="#FFE7D8"/>
<path d="M7580.42 1337.5L7554.44 1424.94L7942.27 1391.63L7968.25 1304.18L7580.42 1337.5Z" fill="#FFE7D8"/>
<path d="M7528.47 1512.39L7502.49 1599.82L7890.32 1566.51L7916.3 1479.06L7528.47 1512.39Z" fill="#FFE7D8"/>
<path d="M7476.51 1687.27L7450.54 1774.72L7838.37 1741.41L7864.34 1653.96L7476.51 1687.27Z" fill="#FFE7D8"/>
<path d="M7424.56 1862.16L7398.58 1949.59L7786.41 1916.28L7812.39 1828.83L7424.56 1862.16Z" fill="#FFE7D8"/>
<path d="M7372.6 2037.04L7346.63 2124.49L7734.46 2091.18L7760.43 2003.73L7372.6 2037.04Z" fill="#FFE7D8"/>
<path d="M7320.64 2211.93L7294.67 2299.36L7682.5 2266.05L7708.47 2178.6L7320.64 2211.93Z" fill="#FFE7D8"/>
<path d="M7268.69 2386.81L7242.71 2474.26L7630.54 2440.95L7656.52 2353.5L7268.69 2386.81Z" fill="#FFE7D8"/>
<path d="M7216.73 2561.71L7190.76 2649.16L7578.59 2615.82L7604.57 2528.38L7216.73 2561.71Z" fill="#FFE7D8"/>
<path d="M7164.78 2736.58L7138.8 2824.03L7526.63 2790.72L7552.61 2703.27L7164.78 2736.58Z" fill="#FFE7D8"/>
<path d="M7112.83 2911.48L7086.83 2998.93L7474.68 2965.59L7500.66 2878.15L7112.83 2911.48Z" fill="#FFE7D8"/>
<path d="M7060.85 3086.36L7034.88 3173.8L7422.73 3140.49L7448.7 3053.04L7060.85 3086.36Z" fill="#FFE7D8"/>
<path d="M7008.9 3261.25L6982.92 3348.7L7370.77 3315.37L7396.75 3227.92L7008.9 3261.25Z" fill="#FFE7D8"/>
<path d="M6956.94 3436.13L6930.96 3523.57L7318.81 3490.26L7344.79 3402.81L6956.94 3436.13Z" fill="#FFE7D8"/>
<path d="M6904.98 3611.02L6879.01 3698.47L7266.86 3665.14L7292.83 3577.69L6904.98 3611.02Z" fill="#FFE7D8"/>
<path d="M6853.03 3785.9L6827.05 3873.34L7214.9 3840.03L7240.88 3752.58L6853.03 3785.9Z" fill="#FFE7D8"/>
<path d="M6801.07 3960.79L6775.1 4048.24L7162.93 4014.91L7188.91 3927.46L6801.07 3960.79Z" fill="#FFE7D8"/>
<path d="M6749.12 4135.67L6723.14 4223.12L7110.97 4189.81L7136.95 4102.36L6749.12 4135.67Z" fill="#FFE7D8"/>
<path d="M6697.17 4310.56L6671.19 4398.01L7059.02 4364.68L7085 4277.23L6697.17 4310.56Z" fill="#FFE7D8"/>
<path d="M6645.21 4485.44L6619.23 4572.89L7007.07 4539.57L7033.04 4452.13L6645.21 4485.44Z" fill="#FFE7D8"/>
<path d="M6593.25 4660.34L6567.27 4747.78L6955.1 4714.45L6981.08 4627.01L6593.25 4660.34Z" fill="#FFE7D8"/>
<path d="M8615.88 396.434L8589.9 483.882L8977.73 450.551L9003.71 363.104L8615.88 396.434Z" fill="#FFE7D8"/>
<path d="M8563.93 571.313L8537.95 658.761L8925.78 625.449L8951.76 538.001L8563.93 571.313Z" fill="#FFE7D8"/>
<path d="M8511.97 746.207L8485.97 833.655L8873.82 800.324L8899.8 712.876L8511.97 746.207Z" fill="#FFE7D8"/>
<path d="M8459.99 921.083L8434.01 1008.53L8821.86 975.219L8847.84 887.771L8459.99 921.083Z" fill="#FFE7D8"/>
<path d="M8408.04 1095.98L8382.06 1183.43L8769.91 1150.09L8795.89 1062.65L8408.04 1095.98Z" fill="#FFE7D8"/>
<path d="M8356.08 1270.86L8330.11 1358.3L8717.96 1324.99L8743.93 1237.54L8356.08 1270.86Z" fill="#FFE7D8"/>
<path d="M8304.13 1445.75L8278.15 1533.2L8666 1499.87L8691.98 1412.44L8304.13 1445.75Z" fill="#FFE7D8"/>
<path d="M8252.17 1620.63L8226.2 1708.07L8614.05 1674.76L8640.02 1587.31L8252.17 1620.63Z" fill="#FFE7D8"/>
<path d="M8200.22 1795.52L8174.24 1882.97L8562.07 1849.64L8588.05 1762.21L8200.22 1795.52Z" fill="#FFE7D8"/>
<path d="M8148.26 1970.4L8122.28 2057.84L8510.11 2024.53L8536.09 1937.08L8148.26 1970.4Z" fill="#FFE7D8"/>
<path d="M8096.31 2145.29L8070.33 2232.74L8458.16 2199.41L8484.14 2111.98L8096.31 2145.29Z" fill="#FFE7D8"/>
<path d="M8044.35 2320.17L8018.37 2407.62L8406.21 2374.31L8432.18 2286.86L8044.35 2320.17Z" fill="#FFE7D8"/>
<path d="M7992.4 2495.06L7966.42 2582.51L8354.25 2549.18L8380.23 2461.75L7992.4 2495.06Z" fill="#FFE7D8"/>
<path d="M7940.44 2669.94L7914.47 2757.39L8302.3 2724.08L8328.27 2636.63L7940.44 2669.94Z" fill="#FFE7D8"/>
<path d="M7888.49 2844.84L7862.51 2932.29L8250.34 2898.95L8276.32 2811.53L7888.49 2844.84Z" fill="#FFE7D8"/>
<path d="M7836.53 3019.71L7810.55 3107.16L8198.38 3073.85L8224.36 2986.4L7836.53 3019.71Z" fill="#FFE7D8"/>
<path d="M7784.57 3194.61L7758.6 3282.06L8146.43 3248.72L8172.41 3161.3L7784.57 3194.61Z" fill="#FFE7D8"/>
<path d="M7732.62 3369.48L7706.64 3456.93L8094.47 3423.62L8120.45 3336.17L7732.62 3369.48Z" fill="#FFE7D8"/>
<path d="M7680.67 3544.38L7654.69 3631.83L8042.52 3598.5L8068.5 3511.07L7680.67 3544.38Z" fill="#FFE7D8"/>
<path d="M7628.71 3719.25L7602.73 3806.7L7990.57 3773.39L8016.54 3685.94L7628.71 3719.25Z" fill="#FFE7D8"/>
<path d="M7576.76 3894.15L7550.78 3981.6L7938.61 3948.27L7964.59 3860.84L7576.76 3894.15Z" fill="#FFE7D8"/>
<path d="M7524.8 4069.03L7498.83 4156.47L7886.66 4123.16L7912.63 4035.71L7524.8 4069.03Z" fill="#FFE7D8"/>
<path d="M7472.84 4243.92L7446.87 4331.37L7834.7 4298.04L7860.67 4210.61L7472.84 4243.92Z" fill="#FFE7D8"/>
<path d="M7420.89 4418.8L7394.91 4506.25L7782.74 4472.93L7808.72 4385.49L7420.89 4418.8Z" fill="#FFE7D8"/>
<path d="M7368.93 4593.69L7342.96 4681.14L7730.79 4647.81L7756.76 4560.38L7368.93 4593.69Z" fill="#FFE7D8"/>
<path d="M9391.54 329.794L9365.56 417.242L9753.39 383.911L9779.37 296.483L9391.54 329.794Z" fill="#FFE7D8"/>
<path d="M9339.58 504.689L9313.61 592.117L9701.44 558.806L9727.41 471.358L9339.58 504.689Z" fill="#FFE7D8"/>
<path d="M9287.63 679.564L9261.65 767.012L9649.48 733.681L9675.46 646.253L9287.63 679.564Z" fill="#FFE7D8"/>
<path d="M9235.67 854.459L9209.7 941.887L9597.53 908.576L9623.51 821.128L9235.67 854.459Z" fill="#FFE7D8"/>
<path d="M9183.72 1029.34L9157.74 1116.79L9545.57 1083.45L9571.55 996.026L9183.72 1029.34Z" fill="#FFE7D8"/>
<path d="M9131.77 1204.23L9105.79 1291.66L9493.62 1258.35L9519.6 1170.9L9131.77 1204.23Z" fill="#FFE7D8"/>
<path d="M9079.81 1379.11L9053.83 1466.56L9441.67 1433.22L9467.64 1345.8L9079.81 1379.11Z" fill="#FFE7D8"/>
<path d="M9027.85 1554L9001.87 1641.43L9389.7 1608.12L9415.68 1520.67L9027.85 1554Z" fill="#FFE7D8"/>
<path d="M8975.9 1728.88L8949.92 1816.32L9337.75 1782.99L9363.73 1695.57L8975.9 1728.88Z" fill="#FFE7D8"/>
<path d="M8923.94 1903.77L8897.97 1991.2L9285.8 1957.89L9311.77 1870.44L8923.94 1903.77Z" fill="#FFE7D8"/>
<path d="M8871.99 2078.65L8846.01 2166.1L9233.84 2132.77L9259.82 2045.34L8871.99 2078.65Z" fill="#FFE7D8"/>
<path d="M8820.03 2253.55L8794.06 2340.97L9181.89 2307.66L9207.86 2220.21L8820.03 2253.55Z" fill="#FFE7D8"/>
<path d="M8768.08 2428.42L8742.1 2515.87L9129.93 2482.54L9155.91 2395.11L8768.08 2428.42Z" fill="#FFE7D8"/>
<path d="M8716.13 2603.32L8690.13 2690.75L9077.98 2657.43L9103.96 2569.99L8716.13 2603.32Z" fill="#FFE7D8"/>
<path d="M8664.15 2778.19L8638.17 2865.64L9026.02 2832.31L9052 2744.88L8664.15 2778.19Z" fill="#FFE7D8"/>
<path d="M8612.19 2953.09L8586.21 3040.52L8974.06 3007.21L9000.04 2919.76L8612.19 2953.09Z" fill="#FFE7D8"/>
<path d="M8560.24 3127.96L8534.26 3215.41L8922.11 3182.08L8948.09 3094.65L8560.24 3127.96Z" fill="#FFE7D8"/>
<path d="M8508.28 3302.86L8482.31 3390.29L8870.16 3356.98L8896.13 3269.53L8508.28 3302.86Z" fill="#FFE7D8"/>
<path d="M8456.33 3477.74L8430.35 3565.19L8818.2 3531.87L8844.18 3444.43L8456.33 3477.74Z" fill="#FFE7D8"/>
<path d="M8404.37 3652.63L8378.4 3740.06L8766.23 3706.75L8792.22 3619.3L8404.37 3652.63Z" fill="#FFE7D8"/>
<path d="M8352.41 3827.51L8326.44 3914.95L8714.27 3881.64L8740.24 3794.2L8352.41 3827.51Z" fill="#FFE7D8"/>
<path d="M8300.46 4002.4L8274.48 4089.83L8662.31 4056.52L8688.29 3969.07L8300.46 4002.4Z" fill="#FFE7D8"/>
<path d="M8248.5 4177.28L8222.53 4264.73L8610.36 4231.42L8636.34 4143.97L8248.5 4177.28Z" fill="#FFE7D8"/>
<path d="M8196.55 4352.17L8170.57 4439.6L8558.4 4406.29L8584.38 4318.84L8196.55 4352.17Z" fill="#FFE7D8"/>
<path d="M8144.6 4527.05L8118.62 4614.5L8506.45 4581.19L8532.43 4493.74L8144.6 4527.05Z" fill="#FFE7D8"/>
<path d="M10167.2 263.151L10141.2 350.599L10529.1 317.287L10555.1 229.839L10167.2 263.151Z" fill="#FFE7D8"/>
<path d="M10115.3 438.045L10089.3 525.493L10477.1 492.162L10503.1 404.714L10115.3 438.045Z" fill="#FFE7D8"/>
<path d="M10063.3 612.921L10037.3 700.369L10425.2 667.057L10451.1 579.609L10063.3 612.921Z" fill="#FFE7D8"/>
<path d="M10011.3 787.818L9985.36 875.266L10373.2 841.935L10399.2 754.487L10011.3 787.818Z" fill="#FFE7D8"/>
<path d="M9959.38 962.693L9933.41 1050.14L10321.3 1016.83L10347.2 929.382L9959.38 962.693Z" fill="#FFE7D8"/>
<path d="M9907.42 1137.59L9881.44 1225.04L10269.3 1191.7L10295.3 1104.26L9907.42 1137.59Z" fill="#FFE7D8"/>
<path d="M9855.47 1312.46L9829.49 1399.91L10217.3 1366.6L10243.3 1279.15L9855.47 1312.46Z" fill="#FFE7D8"/>
<path d="M9803.51 1487.36L9777.54 1574.81L10165.4 1541.48L10191.3 1454.03L9803.51 1487.36Z" fill="#FFE7D8"/>
<path d="M9751.56 1662.24L9725.58 1749.68L10113.4 1716.37L10139.4 1628.92L9751.56 1662.24Z" fill="#FFE7D8"/>
<path d="M9699.61 1837.13L9673.63 1924.58L10061.5 1891.25L10087.4 1803.8L9699.61 1837.13Z" fill="#FFE7D8"/>
<path d="M9647.65 2012.01L9621.67 2099.45L10009.5 2066.14L10035.5 1978.7L9647.65 2012.01Z" fill="#FFE7D8"/>
<path d="M9595.7 2186.91L9569.72 2274.35L9957.55 2241.02L9983.53 2153.57L9595.7 2186.91Z" fill="#FFE7D8"/>
<path d="M9543.74 2361.78L9517.76 2449.23L9905.59 2415.92L9931.57 2328.47L9543.74 2361.78Z" fill="#FFE7D8"/>
<path d="M9491.78 2536.67L9465.8 2624.12L9853.64 2590.79L9879.61 2503.34L9491.78 2536.67Z" fill="#FFE7D8"/>
<path d="M9439.83 2711.55L9413.85 2799L9801.68 2765.69L9827.66 2678.24L9439.83 2711.55Z" fill="#FFE7D8"/>
<path d="M9387.87 2886.45L9361.9 2973.9L9749.73 2940.56L9775.7 2853.12L9387.87 2886.45Z" fill="#FFE7D8"/>
<path d="M9335.92 3061.32L9309.94 3148.77L9697.77 3115.46L9723.75 3028.01L9335.92 3061.32Z" fill="#FFE7D8"/>
<path d="M9283.97 3236.22L9257.99 3323.67L9645.82 3290.33L9671.8 3202.89L9283.97 3236.22Z" fill="#FFE7D8"/>
<path d="M9232 3411.09L9206.03 3498.54L9593.86 3465.23L9619.84 3377.78L9232 3411.09Z" fill="#FFE7D8"/>
<path d="M9180.05 3585.99L9154.07 3673.44L9541.9 3640.11L9567.88 3552.66L9180.05 3585.99Z" fill="#FFE7D8"/>
<path d="M9128.1 3760.87L9102.12 3848.31L9489.95 3815L9515.93 3727.55L9128.1 3760.87Z" fill="#FFE7D8"/>
<path d="M9076.14 3935.76L9050.17 4023.21L9438 3989.88L9463.97 3902.43L9076.14 3935.76Z" fill="#FFE7D8"/>
<path d="M9024.19 4110.64L8998.21 4198.08L9386.04 4164.77L9412.02 4077.32L9024.19 4110.64Z" fill="#FFE7D8"/>
<path d="M8972.23 4285.53L8946.26 4372.98L9334.09 4339.65L9360.07 4252.2L8972.23 4285.53Z" fill="#FFE7D8"/>
<path d="M8920.28 4460.41L8894.3 4547.86L9282.13 4514.55L9308.11 4427.1L8920.28 4460.41Z" fill="#FFE7D8"/>
</svg>
