<svg width="209" height="210" viewBox="0 0 209 210" fill="none" xmlns="http://www.w3.org/2000/svg">
<rect x="0.277344" y="0.429688" width="208.641" height="208.641" rx="28.0119" fill="#FFE7D8"/>
<path d="M97.9733 111.635L86.5244 112.619L71.1844 164.252L82.6333 163.269L97.9733 111.635Z" fill="#FF6146"/>
<path d="M86.5316 112.617L83.4639 122.943L129.261 119.009L132.329 108.683L86.5316 112.617Z" fill="#FF6146"/>
<path d="M74.2523 153.924L71.1846 164.25L116.982 160.316L120.05 149.99L74.2523 153.924Z" fill="#FF6146"/>
<path d="M126.188 129.335L114.739 130.318L105.535 161.299L116.984 160.315L126.188 129.335Z" fill="#FF6146"/>
<path d="M103.294 131.305L100.227 141.631L123.125 139.663L126.193 129.338L103.294 131.305Z" fill="#FF6146"/>
<path d="M155.229 106.715L143.78 107.699L128.44 159.333L139.889 158.349L155.229 106.715Z" fill="#FF6146"/>
<path d="M143.766 107.699L140.698 118.025L175.046 115.074L178.113 104.748L143.766 107.699Z" fill="#FF6146"/>
<path d="M131.494 149.008L128.427 159.334L162.774 156.383L165.842 146.057L131.494 149.008Z" fill="#FF6146"/>
<path d="M178.121 104.748L166.672 105.732L151.332 157.366L162.781 156.382L178.121 104.748Z" fill="#FF6146"/>
<path d="M90.3151 52.1281L78.8662 53.1117L63.5262 104.746L74.9751 103.762L90.3151 52.1281Z" fill="#FF8843"/>
<path d="M78.8519 53.1193L75.7842 63.4452L121.581 59.5106L124.649 49.1847L78.8519 53.1193Z" fill="#FF8843"/>
<path d="M66.5873 94.4211L63.5195 104.747L109.317 100.812L112.385 90.4865L66.5873 94.4211Z" fill="#FF8843"/>
<path d="M118.515 69.8332L107.066 70.8168L97.8624 101.797L109.311 100.813L118.515 69.8332Z" fill="#FF8843"/>
<path d="M95.6214 71.8034L92.5537 82.1293L115.452 80.162L118.52 69.8361L95.6214 71.8034Z" fill="#FF8843"/>
<path d="M67.4098 54.1002L55.9609 55.0839L40.621 106.718L52.0699 105.734L67.4098 54.1002Z" fill="#FF8843"/>
<path fill-rule="evenodd" clip-rule="evenodd" d="M67.4043 54.0924C63.1645 68.3516 46.9159 81.0061 31.1084 82.3739L34.1719 72.0456C43.6563 71.2271 53.4104 63.6344 55.947 55.0725L67.3921 54.0924H67.4043Z" fill="#FF8843"/>
<path d="M147.556 47.2136L136.107 48.1973L120.767 99.8311L132.216 98.8475L147.556 47.2136Z" fill="#FF8843"/>
<path d="M136.101 48.1995L133.033 58.5254L167.381 55.5745L170.448 45.2486L136.101 48.1995Z" fill="#FF8843"/>
<path d="M123.836 89.5031L120.769 99.829L155.116 96.8781L158.184 86.5522L123.836 89.5031Z" fill="#FF8843"/>
<path d="M129.957 68.8522L126.89 79.1781L149.788 77.2108L152.856 66.8849L129.957 68.8522Z" fill="#FF8843"/>
</svg>
